<?xml version="1.0" standalone="no"?>
<!DOCTYPE svg PUBLIC "-//W3C//DTD SVG 1.1//EN" "http://www.w3.org/Graphics/SVG/1.1/DTD/svg11.dtd" >
<svg xmlns="http://www.w3.org/2000/svg">
<metadata>
Created by FontForge 20120731 at Wed Jul 27 09:05:25 2016
 By admin
</metadata>
<defs>
<font id="iconfont" horiz-adv-x="1024" >
  <font-face 
    font-family="iconfont"
    font-weight="500"
    font-stretch="normal"
    units-per-em="1024"
    panose-1="2 0 6 3 0 0 0 0 0 0"
    ascent="896"
    descent="-128"
    x-height="792"
    bbox="0 -225 1820 896"
    underline-thickness="50"
    underline-position="-100"
    unicode-range="U+0078-E6B5"
  />
<missing-glyph horiz-adv-x="374" 
d="M34 0v682h272v-682h-272zM68 34h204v614h-204v-614z" />
    <glyph glyph-name=".notdef" horiz-adv-x="374" 
d="M34 0v682h272v-682h-272zM68 34h204v614h-204v-614z" />
    <glyph glyph-name=".null" horiz-adv-x="0" 
 />
    <glyph glyph-name="nonmarkingreturn" horiz-adv-x="341" 
 />
    <glyph glyph-name="x" unicode="x" horiz-adv-x="1001" 
d="M281 543q-27 -1 -53 -1h-83q-18 0 -36.5 -6t-32.5 -18.5t-23 -32t-9 -45.5v-76h912v41q0 16 -0.5 30t-0.5 18q0 13 -5 29t-17 29.5t-31.5 22.5t-49.5 9h-133v-97h-438v97zM955 310v-52q0 -23 0.5 -52t0.5 -58t-10.5 -47.5t-26 -30t-33 -16t-31.5 -4.5q-14 -1 -29.5 -0.5
t-29.5 0.5h-32l-45 128h-439l-44 -128h-29h-34q-20 0 -45 1q-25 0 -41 9.5t-25.5 23t-13.5 29.5t-4 30v167h911zM163 247q-12 0 -21 -8.5t-9 -21.5t9 -21.5t21 -8.5q13 0 22 8.5t9 21.5t-9 21.5t-22 8.5zM316 123q-8 -26 -14 -48q-5 -19 -10.5 -37t-7.5 -25t-3 -15t1 -14.5
t9.5 -10.5t21.5 -4h37h67h81h80h64h36q23 0 34 12t2 38q-5 13 -9.5 30.5t-9.5 34.5q-5 19 -11 39h-368zM336 498v228q0 11 2.5 23t10 21.5t20.5 15.5t34 6h188q31 0 51.5 -14.5t20.5 -52.5v-227h-327z" />
    <glyph glyph-name="uniE600" unicode="&#xe600;" 
d="M954 290l-431 431q-5 5 -12 4q-6 1 -11 -4l-432 -431q-9 -9 0 -18l29 -28q9 -9 17 0l84 83v-418q0 -10 7.5 -17.5t17.5 -7.5h577q10 0 17 7.5t7 17.5v418l84 -83q9 -9 18 0l28 28q9 9 0 18zM759 -38q0 -5 -4 -8.5t-9 -3.5h-470q-5 0 -8.5 3.5t-3.5 8.5v431l247 247
l248 -247v-431zM511.5 454q-38.5 0 -65.5 -27t-27 -65t27 -65t65.5 -27t65.5 27t27 65t-27 65t-65.5 27zM511.5 329q-13.5 0 -23 9.5t-9.5 23t9.5 23.5t23 10t23 -10t9.5 -23.5t-9.5 -23t-23 -9.5z" />
    <glyph glyph-name="uniE601" unicode="&#xe601;" 
d="M512 812q-104 0 -199 -40.5t-163.5 -109t-109 -163.5t-40.5 -199t40.5 -199t109 -163.5t163.5 -109t199 -40.5t199 40.5t163.5 109t109 163.5t40.5 199t-40.5 199t-109 163.5t-163.5 109t-199 40.5v0zM686 591q112 -74 136 -174l-166 -166q20 301 30 340v0zM513 638
q81 0 135 -28v-243q-194 233 -224 264q15 0 44 3.5t45 3.5v0zM396 620l164 -176q-298 20 -337 31q71 107 173 145v0zM184 212q0 15 -5.5 43.5t-5.5 44.5q0 75 30 134h242q-233 -192 -261 -222v0zM338 11q-106 73 -146 173l176 164q0 -2 -5.5 -76t-12.5 -159t-12 -102v0z
M513 -38q-74 0 -135 29v242q193 -222 222 -261q-15 0 -43.5 -5t-43.5 -5v0zM629 -9l-166 165q290 -20 340 -30q-76 -110 -174 -135v0zM822 165h-243q224 193 263 222q0 -15 4 -43.5t4 -42.5q0 -83 -28 -136v0zM822 165z" />
    <glyph glyph-name="uniE602" unicode="&#xe602;" 
d="M512 812q-104 0 -199 -40.5t-163.5 -109t-109 -163.5t-40.5 -199t40.5 -199t109 -163.5t163.5 -109t199 -40.5t199 40.5t163.5 109t109 163.5t40.5 199t-40.5 199t-109 163.5t-163.5 109t-199 40.5v0zM342 346l-97 169q47 59 116.5 93.5t149.5 34.5q92 0 169.5 -45.5
t122.5 -121.5h-277q-8 1 -15 1q-60 0 -107 -37t-62 -94v0zM632 427h195q24 -60 24 -124q0 -92 -45 -170t-122.5 -124t-168.5 -47l139 241q31 45 31 100q0 73 -53 124v0zM387 303q0 51 36.5 87t87.5 36t87 -36t36 -87.5t-36 -87.5t-87 -36t-87.5 36t-36.5 88v0zM557 135
l-97 -169q-124 19 -207 114t-83 223q0 89 44 166l139 -240q21 -45 63.5 -73t94.5 -28q23 0 46 7v0zM557 135z" />
    <glyph glyph-name="uniE603" unicode="&#xe603;" 
d="M985 812h-946q-13 0 -22.5 -9t-9.5 -23v-757q0 -13 9.5 -22t22.5 -9h94v-158q0 -13 9.5 -26t30.5 -19t55 14q43 22 355 189h402q13 0 22.5 9t9.5 22v757q0 14 -9.5 23t-22.5 9zM954 55h-379q-6 -1 -13 -2q-2 -1 -81 -43t-170.5 -91t-113.5 -61v197h-127v694h884v-694z
M200 634h637v-89h-637v89zM200 437h471v-88h-471v88zM200 241h226v-88h-226v88zM200 241z" />
    <glyph glyph-name="uniE604" unicode="&#xe604;" 
d="M799 115l30 30l-317 316l-317 -316l30 -30l287 286z" />
    <glyph glyph-name="uniE605" unicode="&#xe605;" 
d="M225 461l-30 -30l317 -316l317 316l-30 30l-287 -286z" />
    <glyph glyph-name="uniE606" unicode="&#xe606;" 
d="M727 -221l-524 509l524 509l41 -39l-483 -470l483 -470z" />
    <glyph glyph-name="uniE607" unicode="&#xe607;" 
d="M742 311l-416 417q-9 9 -22 9t-22 -9t-9 -22t9 -22l394 -395l-394 -394q-9 -9 -9 -22t9 -22t22 -9t22 9l416 416q9 9 9 22t-9 22z" />
    <glyph glyph-name="uniE608" unicode="&#xe608;" horiz-adv-x="1000" 
d="M892 -178h-756q-35 0 -55 20.5t-20 55.5v457q0 36 20 56t55 20h114v115q0 118 73.5 192t191 74t191 -74t73.5 -192v-115h113q36 0 56 -20t20 -56v-457q0 -35 -20 -55.5t-56 -20.5zM703 584q0 62 -60 107t-128.5 45t-129 -45t-60.5 -107v-153h378v153z" />
    <glyph glyph-name="uniE609" unicode="&#xe609;" 
d="M512 609q99 0 183.5 -49t134 -133.5t49.5 -184t-49.5 -184t-134 -133.5t-183.5 -49t-183.5 49t-134 133.5t-49.5 184t49.5 184t134 133.5t183.5 49zM512 633q-106 0 -196 -52.5t-142 -142t-52 -195.5t52 -196t142 -142t196 -52t196 52t142 142t52 196t-52 195.5t-142 142
t-196 52.5zM142 539l-18 14q93 121 237 170l7 -22q-137 -47 -226 -162zM863 539q-89 115 -226 162l7 22q144 -49 237 -170zM729 99l-228 136v199h24v-186l216 -129z" />
    <glyph glyph-name="uniE60A" unicode="&#xe60a;" 
d="M512 197q-38 0 -64.5 26.5t-26.5 64.5t26.5 64.5t64.5 26.5t64.5 -26.5t26.5 -64.5t-26.5 -64.5t-64.5 -26.5zM512 357q-29 0 -49 -20t-20 -49t20 -49t49 -20t49 20t20 49t-20 49t-49 20zM512 -43q-55 0 -111 18t-101 44t-90 62.5t-75 67t-58 64t-38 47t-16 22.5
q-4 6 0 12q6 9 16 22.5t38 47t58 64.5t75 67t90 62t101 44t111 18t111 -18t101 -44t90 -62.5t75 -66.5t58 -64t38 -47.5t16 -22.5q4 -6 0 -12q-6 -9 -16 -22.5t-38 -47t-58 -64t-75 -67t-90 -62.5t-101 -44t-111 -18zM45 288q17 -23 38.5 -50t71 -76.5t100.5 -87
t120.5 -66.5t136.5 -29t136.5 29t120.5 66.5t100.5 87t71 76.5t38.5 50q-17 23 -38.5 50t-71 76.5t-100.5 87t-120.5 66.5t-136.5 29t-136.5 -29t-120.5 -66.5t-100.5 -87t-71 -76.5t-38.5 -50zM512 77q-87 0 -149 62t-62 149t62 149t149 62t149 -62t62 -149t-62 -149
t-149 -62zM512 477q-78 0 -133.5 -55.5t-55.5 -133.5t55.5 -133.5t133.5 -55.5t133.5 55.5t55.5 133.5t-55.5 133.5t-133.5 55.5z" />
    <glyph glyph-name="uniE60B" unicode="&#xe60b;" 
d="M112 560h800v-48h-800v48zM112 320h800v-48h-800v48zM112 64h800v-48h-800v48z" />
    <glyph glyph-name="uniE60C" unicode="&#xe60c;" 
d="M384 201q-40 30 -62.5 74.5t-22.5 96.5q0 88 62 150t150.5 62t150.5 -62t62 -150q0 -52 -23 -96.5t-62 -74.5q72 -26 129 -77.5t89 -121.5q103 125 103 287q0 91 -35.5 174t-95.5 143t-143 95.5t-174 35.5t-174 -35.5t-143 -95.5t-96 -143t-36 -174q0 -161 103 -285
q32 69 89 120.5t129 76.5z" />
    <glyph glyph-name="uniE60D" unicode="&#xe60d;" 
d="M512 -148q-185 0 -316.5 131.5t-131.5 316.5t131.5 316.5t316.5 131.5t316.5 -131.5t131.5 -316.5t-131.5 -316.5t-316.5 -131.5zM512 684q-104 0 -192.5 -51.5t-140 -140t-51.5 -192.5t51.5 -192.5t140 -140t192.5 -51.5t192.5 51.5t140 140t51.5 192.5t-51.5 192.5
t-140 140t-192.5 51.5zM557 299l138 136q10 10 10 23t-9.5 22.5t-22.5 9.5t-23 -9l-138 -137l-137 137q-9 9 -22 9t-22.5 -9t-9.5 -22.5t9 -22.5l136 -137l-137 -136q-9 -9 -9.5 -22.5t9 -23t22.5 -9.5q14 0 23 10l138 136l138 -140q10 -9 23 -9t22.5 9.5t9.5 22.5t-9 23z
" />
    <glyph glyph-name="uniE60E" unicode="&#xe60e;" 
d="M386 584q0 153 95 153q96 0 96 -153v-589q0 -156 -96 -156q-95 0 -95 156v589z" />
    <glyph glyph-name="uniE60F" unicode="&#xe60f;" 
d="M512 -153q-10 0 -16 8l-251 329q0 1 -2 3t-3 4l-1 1q-1 1 -2 3q-62 88 -62 196q0 140 98.5 238.5t238.5 98.5t239 -98.5t99 -238.5q0 -108 -63 -196q-1 -1 -2 -3l-1 -1q-3 -4 -5 -7l-250 -329q-7 -8 -17 -8zM278 209l234 -308l235 308v1q2 2 4 5l1 1l1 1q56 78 56 174
q0 123 -87 209.5t-210 86.5t-209.5 -86.5t-86.5 -209.5q0 -96 56 -174v-1q1 0 1 -1l3 -3q1 -2 2 -3zM512.5 260q-54.5 0 -93.5 38.5t-39 93t39 93.5t93.5 39t93 -39t38.5 -93.5t-38.5 -93t-93 -38.5zM512.5 483q-37.5 0 -64.5 -27t-27 -64.5t27 -64t64.5 -26.5t64 26.5
t26.5 64t-26.5 64.5t-64 27z" />
    <glyph glyph-name="uniE610" unicode="&#xe610;" 
d="M512 800q-104 0 -199 -40.5t-163.5 -109t-109 -163.5t-40.5 -199t40.5 -199t109 -163.5t163.5 -109t199 -40.5t199 40.5t163.5 109t109 163.5t40.5 199t-40.5 199t-109 163.5t-163.5 109t-199 40.5zM512 -177q-95 0 -181 36.5t-148.5 99t-99 148.5t-36.5 181t36.5 181
t99 148.5t148.5 99t181 36.5t181 -36.5t148.5 -99t99 -148.5t36.5 -181t-36.5 -181t-99 -148.5t-148.5 -99t-181 -36.5zM768 288h-233v303q0 9 -6.5 16t-16.5 7t-16.5 -7t-6.5 -16v-326q0 -10 6.5 -17t16.5 -7h256q10 0 16.5 7t6.5 16.5t-6.5 16.5t-16.5 7z" />
    <glyph glyph-name="uniE611" unicode="&#xe611;" 
d="M506.5 692q-109.5 0 -202.5 -54.5t-147.5 -147.5t-54.5 -202.5t54.5 -202.5t147.5 -147t202.5 -54t202.5 54t147.5 147t54.5 202.5t-54.5 202.5t-147.5 147.5t-202.5 54.5zM506.5 -73q-97.5 0 -180.5 48.5t-131.5 131.5t-48.5 180.5t48.5 180.5t131.5 131.5t180.5 48.5
t180.5 -48.5t131.5 -131.5t48.5 -180.5t-48.5 -180.5t-131.5 -131.5t-180.5 -48.5zM529 486h-45v-180h-180v-45h180v-181h45v181h180v45h-180v180z" />
    <glyph glyph-name="uniE612" unicode="&#xe612;" 
d="M128 547h17q589 0 737 1q8 0 11 -3t3 -12v-491q0 -8 -3 -11t-10 -3q-346 1 -742 1q-7 0 -10 2t-3 9v491v16zM189 514q9 -9 9 -10q181 -166 248 -227q25 -24 41 -35q27 -19 51 1q21 15 50 42q65 60 236 217q1 1 10 12h-645zM188 67q0 -1 2 -3l2 -2h641l2 4q-12 9 -13 10
q-153 140 -198 182q-10 9 -21 -1q-28 -25 -52 -43q-39 -30 -77 -1q-21 16 -54 45q-10 9 -19 0q-67 -61 -200 -183q0 -1 -13 -8zM388 288q-55 50 -223 204v-408q41 37 116 106t107 98zM860 488l-4 2q-32 -30 -106 -98t-113 -104q177 -163 223 -205v405z" />
    <glyph glyph-name="uniE613" unicode="&#xe613;" 
d="M512 215q-336 0 -426 -207q-44 -103 -21 -223l2 -10h890l8 54q13 170 -90 272q-116 114 -363 114zM516 262q36 0 66 11t51.5 29.5t39 43t28 51.5t18.5 53.5t11.5 51t5.5 43t2 29.5v11q0 5 -0.5 12.5t-4.5 30t-12 43t-24.5 45.5t-39 42.5t-59.5 30t-82.5 12.5t-82 -12
t-59 -31t-39.5 -42t-24.5 -46t-12 -42t-4.5 -31l-1 -12q0 -7 0.5 -18.5t5 -45t12 -64t24.5 -68t39.5 -64t59 -45t82.5 -18.5z" />
    <glyph glyph-name="uniE614" unicode="&#xe614;" 
d="M719 416q0 86 -60.5 146.5t-146.5 60.5t-146.5 -61t-60.5 -146q0 -80 53 -139t131 -67v-94h-92v-47h92v-92h46v92h92v47h-92v93q78 9 131 68t53 139zM512 253q-67 0 -113.5 47t-46.5 114t47 114t113 47t113 -47.5t47 -113.5q0 -67 -46.5 -114t-113.5 -47z" />
    <glyph glyph-name="uniE615" unicode="&#xe615;" 
d="M754 591h-145v-49h114l-146 -145q-59 48 -138 48q-91 0 -154.5 -63.5t-63.5 -154.5t63.5 -154.5t154.5 -63.5t155 63.5t64 154.5q0 76 -46 134l143 143v-107h48v145v49h-49zM439 58q-71 0 -120.5 49t-49.5 120t49.5 120.5t120.5 49.5t120.5 -49.5t49.5 -120.5t-49.5 -120
t-120.5 -49z" />
    <glyph glyph-name="uniE616" unicode="&#xe616;" 
d="M741 635h-463v55q0 5 3.5 8.5t8.5 3.5h439q5 0 8.5 -3.5t3.5 -8.5v-55zM741 74h-463v528h463v-528zM741 -112q0 -5 -3.5 -8.5t-8.5 -3.5h-439q-5 0 -8.5 3.5t-3.5 8.5v153h463v-153zM729 735h-439q-19 0 -32 -13.5t-13 -31.5v-802q0 -19 13 -32t32 -13h439q19 0 32 13
t13 32v802q0 18 -13 31.5t-32 13.5zM460 -25h99v-33h-99v33z" />
    <glyph glyph-name="uniE617" unicode="&#xe617;" 
d="M804 -84h-4l-108 20q-8 2 -13 8l-151 198q-30 -7 -60 -7q-114 0 -194.5 80.5t-80.5 194t80.5 194t194.5 80.5q113 0 193.5 -80.5t80.5 -194.5q0 -93 -56 -167l140 -185q5 -6 5 -14l-6 -107q0 -9 -8 -15q-6 -5 -13 -5zM708 -23l76 -14l3 74l-146 193q-11 14 1 27
q57 66 57 152q0 96 -68 164t-163.5 68t-163.5 -68t-68 -163.5t68 -163.5t164 -68q31 0 63 9q14 4 23 -8zM428 356q-42 0 -72.5 30t-30.5 72.5t30.5 72.5t72.5 30t72.5 -30t30.5 -72.5t-30.5 -72.5t-72.5 -30zM428 518q-25 0 -42.5 -17.5t-17.5 -42t17.5 -42t42.5 -17.5
t42 17.5t17 42t-17 42t-42 17.5z" />
    <glyph glyph-name="uniE618" unicode="&#xe618;" 
d="M784 513l-126 126l63 63q15 15 37.5 15t37.5 -15l51 -51q15 -15 15 -37.5t-15 -37.5zM418 147l-126 126l342 340l126 -126zM191 44l77 205l124 -125zM756 1q14 0 23 -9.5t9 -22.5t-9 -22.5t-23 -9.5h-564q-13 0 -22 9.5t-9 22.5t9 22.5t22 9.5h564z" />
    <glyph glyph-name="uniE619" unicode="&#xe619;" 
d="M171 459h85v85h85v85h-85v86h-85v-86h-86v-85h86v-85zM896 544h-171q-1 3 -3.5 9t-11 20.5t-18 26t-23.5 20.5t-29 9h-213q-19 0 -30 -10.5t-12 -21.5l-1 -10v-86h-85v-85h-171v-384q0 -22 10 -32.5t33 -10.5h725q22 0 32.5 10.5t10.5 32.5v469q0 23 -10.5 33t-32.5 10z
M533.5 75q-79.5 0 -136 56t-56.5 135.5t56.5 136t136 56.5t135.5 -56.5t56 -136t-56 -135.5t-135.5 -56zM384 267q0 -62 43.5 -106t105.5 -44t106 44t44 106t-44 105.5t-106 43.5t-105.5 -43.5t-43.5 -105.5z" />
    <glyph glyph-name="uniE61A" unicode="&#xe61a;" 
d="M994 -60q0 -22 -16 -37.5t-38 -15.5h-825q-22 0 -37.5 15.5t-15.5 37.5v729q0 22 15.5 37.5t37.5 15.5h825q22 0 38 -15.5t16 -37.5v-729zM953 643q0 17 -12 29t-29 12h-769q-16 0 -28 -12t-12 -29v-678q0 -16 12 -28t28 -12h769q17 0 29 12t12 28v678zM295 580
q-37 0 -63 -26.5t-26 -63.5t26 -63.5t63 -26.5t63.5 26.5t26.5 63.5t-26.5 63.5t-63.5 26.5zM344 490q0 -20 -14.5 -34.5t-34.5 -14.5t-34 14.5t-14 34.5t14 34.5t34 14.5t34.5 -14.5t14.5 -34.5zM167 101l173 130l94 -96l232 233l218 -219l28 31l-245 246l-233 -231l-90 90
l-200 -150zM898 117h-325v-41h325v41zM898 23h-510v-41h510v41z" />
    <glyph glyph-name="uniE61B" unicode="&#xe61b;" 
d="M533 238h-32q-7 0 -11.5 -3t-4.5 -8v-23q0 -4 4.5 -7.5t11.5 -3.5h32q6 0 11 3.5t5 7.5v23q0 5 -5 8t-11 3zM500 288h33q6 0 11 3.5t5 7.5v23q0 5 -5 8t-11 3h-33q-6 0 -11 -3t-5 -8v-23q0 -4 5 -7.5t11 -3.5zM378 288h32q6 0 11 3.5t5 7.5v23q0 5 -5 8t-11 3h-32
q-7 0 -11.5 -3t-4.5 -8v-23q0 -4 4.5 -7.5t11.5 -3.5zM255 286h32q6 0 11 3.5t5 7.5v23q0 5 -5 8t-11 3h-32q-7 0 -11.5 -3t-4.5 -8v-23q0 -4 4.5 -7.5t11.5 -3.5zM410 238h-32q-7 0 -11.5 -3t-4.5 -8v-23q0 -4 4.5 -7.5t11.5 -3.5h32q7 0 11.5 3.5t4.5 7.5v23q0 5 -4.5 8
t-11.5 3zM410 429h-32q-7 0 -11.5 -3.5t-4.5 -8.5v-22q0 -5 4.5 -8.5t11.5 -3.5h32q7 0 11.5 3.5t4.5 8.5v22q0 5 -4.5 8.5t-11.5 3.5zM730 573h-550q-22 0 -38.5 -16.5t-16.5 -39.5v-526q0 -24 16.5 -40.5t38.5 -16.5h550q23 0 39 16.5t16 40.5v526q0 23 -16 39.5t-39 16.5
zM753 -7q0 -11 -4.5 -18t-12.5 -7h-561q-7 1 -12.5 8t-5.5 17v534v-9q0 6 5 12t13 6h561q8 0 12.5 -7t4.5 -17v-519zM656 333h-33q-6 0 -11 -3t-5 -8v-23q0 -4 5 -7.5t11 -3.5h33q6 0 11 3.5t5 7.5v23q0 5 -5 8t-11 3zM533 429h-32q-7 0 -11.5 -3.5t-4.5 -8.5v-22
q0 -5 4.5 -8.5t11.5 -3.5h32q6 0 11 3.5t5 8.5v22q0 5 -5 8.5t-11 3.5zM656 429h-33q-6 0 -11 -3.5t-5 -8.5v-22q0 -5 5 -8.5t11 -3.5h33q6 0 11 3.5t5 8.5v22q0 5 -5 8.5t-11 3.5zM287 238h-32q-6 0 -11 -3.5t-5 -7.5v-23q0 -5 5 -8t11 -3h32q7 0 11.5 3t4.5 8v23
q0 4 -4.5 7.5t-11.5 3.5zM255 383h32q7 0 11.5 3.5t4.5 8.5v22q0 5 -4.5 8.5t-11.5 3.5h-32q-6 0 -11 -3.5t-5 -8.5v-22q0 -5 5 -8.5t11 -3.5zM656 238h-33q-6 0 -11 -3t-5 -8v-23q0 -4 5 -7.5t11 -3.5h33q6 0 11 3.5t5 7.5v23q0 5 -5 8t-11 3zM844 709h-550
q-23 0 -39 -16.5t-16 -40.5v-58l31 -1v70l1 -9q0 5 5 11.5t12 6.5h561q8 0 13 -7t5 -18v-519q0 -10 -5 -17t-13 -7h-37v-34h32q22 0 38.5 16.5t16.5 39.5v526q0 24 -16.5 40.5t-38.5 16.5z" />
    <glyph glyph-name="uniE61C" unicode="&#xe61c;" 
d="M624 65q0 40 -26.5 70.5t-66.5 37.5v297h56q8 0 14 6t6 14.5t-6 14.5t-14 6h-56v59h89q8 0 14 6t6 14.5t-6 14.5t-14 6h-109q-9 0 -15 -6t-6 -15v-416q-41 -7 -68.5 -37.5t-27.5 -71.5q0 -45 34 -77.5t81.5 -32.5t81 32.5t33.5 77.5zM435 65.5q0 28.5 22 48.5t52.5 20
t52 -20t21.5 -48.5t-21.5 -49t-52 -20.5t-52.5 20.5t-22 49z" />
    <glyph glyph-name="uniE61D" unicode="&#xe61d;" 
d="M532 551q42 0 80.5 -28.5t38.5 -56.5v-85q0 -30 -12.5 -67.5t-37.5 -57.5q-15 -11 -13 -30t20 -27l148 -71h1t2.5 -1t3 -1.5t3 -2.5t2.5 -4t1.5 -5t0.5 -7v-33h-477v35q0 13 14 19l150 71q17 8 19.5 27t-12.5 31q-24 19 -38 56.5t-14 67.5v85q0 28 39 56.5t81 28.5z
M532 585q-56 0 -105 -38t-49 -81v-85q0 -35 16.5 -80t48.5 -71l-150 -71q-4 -1 -9.5 -4.5t-15 -12t-9.5 -17.5v-51q0 -14 10 -24t24 -10h477q15 0 25 10t10 24v51q0 9 -8.5 17.5t-17.5 12.5l-9 4l-148 71q32 25 47.5 69t15.5 82v85q0 43 -48.5 81t-104.5 38z" />
    <glyph glyph-name="uniE61E" unicode="&#xe61e;" 
d="M420 -44l-360 348l90 93l264 -254l454 501l96 -87z" />
    <glyph glyph-name="uniE61F" unicode="&#xe61f;" 
d="M512 300zM0 300q0 139 68.5 257t186.5 186.5t257 68.5t257 -68.5t186.5 -186.5t68.5 -257t-68.5 -257t-186.5 -186.5t-257 -68.5t-257 68.5t-186.5 186.5t-68.5 257zM247 545q-34 0 -58 -24t-24 -57v-341q0 -34 24 -58t58 -24h546q33 0 57 24t24 58v341q0 33 -24 57
t-57 24h-546zM765 96h-491q-22 0 -38 15.5t-16 38.5v24q20 -9 40 -27q27 -23 44.5 -24t48.5 24q83 73 167 0q28 -24 48.5 -24t48.5 24q82 72 164 0q20 -17 33 -22q-15 -29 -49 -29zM820 436v-264q-16 3 -39 23q-82 72 -164 0q-28 -24 -48.5 -24t-48.5 24q-84 74 -167 0
q-31 -25 -48.5 -24t-44.5 24q-20 18 -40 27v214q0 23 16 39t38 16h491q23 0 39 -16t16 -39zM677 464q-37 0 -63 -26t-26 -63t26 -63t62.5 -26t62.5 26t26 63t-26 63t-62 26zM677 327q-20 0 -34 14t-14 34t14 34t33.5 14t33.5 -14t14 -34t-14 -34t-33 -14z" />
    <glyph glyph-name="uniE620" unicode="&#xe620;" horiz-adv-x="1000" 
d="M515 317zM408 318v3q0 45 31.5 76.5t76 31.5t76 -31.5t31.5 -76.5v-3v-4q0 -45 -31.5 -76.5t-76 -31.5t-76 31.5t-31.5 76.5v4zM186 317zM79 318v3q0 45 31.5 76.5t76 31.5t76 -31.5t31.5 -76.5v-3v-4q0 -45 -31.5 -76.5t-76 -31.5t-76 31.5t-31.5 76.5v4zM843 317z
M736 318v3q0 45 31.5 76.5t76 31.5t76 -31.5t31.5 -76.5v-3v-4q0 -45 -31.5 -76.5t-76 -31.5t-76 31.5t-31.5 76.5v4z" />
    <glyph glyph-name="uniE621" unicode="&#xe621;" 
d="M958 403l-309 45l-137 279l-138 -279l-308 -45l223 -217l-53 -307l276 145l275 -145l-52 307zM512 93l-195 -103l37 217l-157 154l217 31l98 198l97 -198l218 -31l-158 -154l37 -217z" />
    <glyph glyph-name="uniE622" unicode="&#xe622;" 
d="M791 302q0 -119 -84 -203t-203 -84t-203 84t-84 203t84 203t203 84q66 0 124 -28.5t98 -77.5l-44 -39l196 -59l-33 205l-54 -49q-53 63 -127.5 98.5t-159.5 35.5q-101 0 -187 -50t-136 -136t-50 -187.5t50 -187.5t136 -136t187 -50q98 0 181.5 47t134.5 127.5t57 176.5
l-86 31v-4v-4z" />
    <glyph glyph-name="uniE623" unicode="&#xe623;" horiz-adv-x="1068" 
d="M863 278h205l-534 534l-534 -534h198v-490h237v304h198v-304h230v490z" />
    <glyph glyph-name="uniE624" unicode="&#xe624;" 
d="M944 -51q-2 -33 -26 -56t-56 -23h-668q-32 0 -56 23t-25 56l-27 496q-3 10 -3 21v29l-1 11q0 4 1 12v166q0 33 22.5 56.5t54.5 23.5h194q20 0 41.5 -19.5t37 -42.5t30 -53.5t19.5 -43t8 -20.5h411q32 0 53 -23.5t20 -55.5zM354 724h-194q-16 0 -27 -11.5t-11 -28.5v-40
v-68q16 9 34 9h295q-4 9 -10 24t-21 45t-32.5 50t-33.5 20zM927 535q-10 11 -26 11h-744q-16 0 -26 -11t-9 -27l30 -556q1 -17 14 -29.5t29 -12.5h668q16 0 29 12.5t14 29.5l30 556q1 16 -9 27z" />
    <glyph glyph-name="uniE625" unicode="&#xe625;" 
d="M291 460h688v-55h-260v-364q0 -38 -19.5 -59.5t-52 -28.5t-74.5 -1t-88 23l19 57q43 -7 59 1t16 36v37v299h-288v55zM318 647q144 14 264 17.5t210 1.5q103 -2 187 -10v-74q-53 11 -116 16.5t-128.5 6t-129 -3t-117 -8t-94 -11t-58.5 -10.5q-32 -4 -47.5 -12.5
t-21.5 -18.5q-7 -12 -6 -25v-410q0 -33 -9.5 -56.5t-25.5 -40.5t-36 -27t-40 -16q-50 -13 -111 -8v46q35 7 45 21t10 34v607h167v-37q0 14 18.5 16t38.5 2z" />
    <glyph glyph-name="uniE626" unicode="&#xe626;" 
d="M512 569q37 0 63.5 26t26.5 63.5t-26.5 63.5t-63.5 26t-63.5 -26t-26.5 -63.5t26.5 -63.5t63.5 -26zM512 390q-37 0 -63.5 -26.5t-26.5 -63.5t26.5 -63.5t63.5 -26.5t63.5 26.5t26.5 63.5t-26.5 63.5t-63.5 26.5zM512 31q-37 0 -63.5 -26t-26.5 -63.5t26.5 -63.5
t63.5 -26t63.5 26t26.5 63.5t-26.5 63.5t-63.5 26z" />
    <glyph glyph-name="uniE627" unicode="&#xe627;" 
d="M59 498q0 26 18.5 44t44.5 18h63v-281h-63q-26 0 -44.5 18t-18.5 44v157zM759 756q43 41 78 45t62 -18.5t46 -66t31 -97t18 -112t6 -111.5t-7.5 -106t-22 -99.5t-34 -81.5t-43.5 -52t-51.5 -12t-57.5 39q-29 34 -78.5 56.5t-108 38t-118.5 25t-110 17t-83.5 14.5
t-37.5 17v313q4 14 31.5 23t70 17t96 17.5t109 26t108.5 42t96 65.5zM399 143q5 -12 12 -26q6 -13 16 -30t24 -37q17 -24 34.5 -50.5t26.5 -48t5.5 -35.5t-28.5 -14h-57q-20 0 -37 7.5t-32.5 23t-32 39.5t-35.5 57q-23 38 -32 66.5t-12 47.5q-4 22 0 38q8 -1 19 -4
q9 -2 22 -5t30 -6q17 -4 30.5 -7.5t24.5 -7.5q12 -4 22 -8z" />
    <glyph glyph-name="uniE628" unicode="&#xe628;" 
d="M377 506h383v-45h-383v45zM377 330h383v-45h-383v45zM377 154h186v-45h-186v45zM224 517h68v-67h-68v67zM224 341h68v-67h-68v67zM224 165h67v-67h-67v67zM506 -54h-332q-15 0 -15 20v646q0 20 15 20h647q14 0 14 -20v-374v0q0 -9 6.5 -15.5t15.5 -6.5t15 6.5t6 15.5v0
v416q0 9 -6.5 15.5t-15.5 6.5h-718q-9 0 -15.5 -6.5t-6.5 -15.5v-730q0 -9 6.5 -15.5t15.5 -6.5h368q10 0 16.5 6.5t6.5 15.5t-6.5 15.5t-16.5 6.5zM910 111q6 6 6 15q0 10 -6.5 16.5t-15.5 6.5t-16 -7v0l-161 -161l-64 65q-7 6 -16.5 6t-16 -6.5t-6.5 -15.5t7 -16l65 -65
h-1l32 -32v1l1 -1l31 32z" />
    <glyph glyph-name="uniE629" unicode="&#xe629;" 
d="M967 376q-12 0 -21 9t-9 21v304h-303q-12 0 -21 8.5t-9 21t9 21t21 8.5h333q13 0 21.5 -8.5t8.5 -21.5v-333q0 -12 -8.5 -21t-21.5 -9v0zM988 718l-503 -503q-9 -9 -21 -9t-21 9t-9 21t9 21l503 504q9 8 21.5 8t21 -8.5t8.5 -21t-9 -21.5v0zM967 -186h-896q-12 0 -21 8.5
t-9 20.5v896q0 13 9 21.5t21 8.5h349q13 0 21.5 -8.5t8.5 -21t-8.5 -21t-21.5 -8.5h-319v-837h836v319q0 12 9 21t21.5 9t21 -9t8.5 -21v-349q0 -12 -8.5 -20.5t-21.5 -8.5v0z" />
    <glyph glyph-name="uniE62A" unicode="&#xe62a;" 
d="M388 -69q-46 -46 -111 -46t-111 46l-22 22q-46 46 -46 111t46 111l300 299l-22 22l-300 -299q-54 -55 -54 -133t54 -132l22 -22q55 -55 133 -55t133 55l149 149l-21 22zM903 668l-22 22q-55 55 -133 55t-133 -55l-149 -150l21 -22l150 150q46 46 111 46t111 -46l22 -22
q46 -46 46 -111t-46 -111l-300 -299l22 -22l300 300q54 54 54 132t-54 133zM679 507l22 -22l-375 -375l-22 22z" />
    <glyph glyph-name="uniE62B" unicode="&#xe62b;" 
d="M575.5 410q-45.5 26 -97 12.5t-78 -58.5t-12.5 -95.5t60 -77t97 -13t77.5 59t12.5 96t-59.5 76.5zM594.5 253.5q-19.5 -33.5 -58 -44t-72.5 9.5t-44.5 57.5t9.5 71.5t58 44t72.5 -9.5t44.5 -57.5t-9.5 -71.5zM888 374l-6 27l-2 7q-52 15 -78 59q-12 21 -15.5 48t2.5 48
l-14 12q-5 6 -11 10l-1 1q-57 49 -127 73h-1l-26 8h-1v0l-6 1q-39 -36 -90 -36q-25 0 -50.5 10t-40.5 27l-6 -2l-28 -8v-1q-71 -24 -128 -72v-1l-14 -12l-6 -6l-5 -5q13 -52 -13 -96q-12 -20 -34 -37t-44 -22l-2 -8q-3 -13 -6 -25v-1q-7 -36 -7 -72q0 -37 7 -74v0
q3 -14 7 -27l2 -6q52 -15 77 -59q12 -21 16 -48t-3 -48l7 -6q63 -62 147 -90v0q12 -4 23 -7l3 -1l7 -2q39 37 91 37q24 0 49.5 -10.5t41.5 -26.5l6 2q101 26 174 99l1 1l5 4q-12 53 13 96q12 21 34 38t44 22l1 5q14 49 14 101q0 37 -7 73zM853 218q-52 -21 -79 -67t-19 -100
q-62 -60 -145 -83q-45 33 -98 33q-54 0 -98 -34q-83 24 -146 83q7 55 -19 101q-27 46 -79 66q-10 41 -10 84q0 42 10 83q52 21 79 67t19 100q63 59 146 83q44 -34 98 -34q53 0 97 34q83 -24 146 -83q-7 -54 20 -100t78 -66q10 -42 10 -84t-10 -83z" />
    <glyph glyph-name="uniE62C" unicode="&#xe62c;" 
d="M1024 302zM514 -209q-94 0 -180 37t-147.5 99t-98.5 147.5t-37 179.5q0 143 79.5 259t207.5 169q8 2 16 2q20 0 34 -14t14 -33q0 -16 -9 -28t-23 -17v-1q-100 -42 -161.5 -133.5t-61.5 -203.5q0 -100 49 -184.5t133.5 -133.5t184 -49t184 49t134 133.5t49.5 184.5
q0 112 -62 203.5t-162 133.5q-14 5 -23 17.5t-9 28.5q0 19 14 33t34 14q8 0 16 -2q128 -53 207.5 -169t79.5 -259q0 -94 -36.5 -179.5t-98.5 -147.5t-147.5 -99t-179.5 -37zM514 286q-20 0 -34 14t-14 34v283v96v51q0 20 14 34t34 14t34 -14t14 -34v-143v-96v-191
q0 -20 -14 -34t-34 -14z" />
    <glyph glyph-name="uniE62D" unicode="&#xe62d;" horiz-adv-x="1756" 
d="M878 246v-150q0 -12 -5.5 -20.5t-12.5 -8.5h-665q-6 0 -11.5 8.5t-5.5 20.5v582q0 12 5.5 20.5t11.5 8.5h618v46h-618q-26 0 -44.5 -22t-18.5 -53v-582q0 -31 18.5 -53t44.5 -22h665q26 0 44.5 22t18.5 53v150h-45zM1124 610q9 8 9 19.5t-9 20.5l-120 120q-8 8 -19.5 8
t-20.5 -8l-42 -42l160 -160zM580 385l302 303l160 -160l-302 -303zM700 185l-160 160l-36 -195z" />
    <glyph glyph-name="uniE62E" unicode="&#xe62e;" 
d="M378 398q0 -5 3.5 -9t9.5 -4q2 -26 20.5 -47.5t42.5 -21.5t42.5 21.5t20.5 47.5q5 0 8.5 4t3.5 9q0 9 -7 12q4 12 4 25q0 32 -21 54.5t-51 22.5t-51 -22.5t-21 -54.5q0 -13 3 -25q-7 -3 -7 -12zM545 274q-18 9 -37 14h-4h-3h-3q-19 -10 -44.5 -10t-43.5 10h-3h-3h-1
q-61 -14 -107 -59q-2 -2 -2 -5v-24q0 -6 6 -6h183q23 46 62 80zM267 96.5q0 -4.5 3 -8t8 -3.5h176q1 11 2 23h-178q-5 0 -8 -3.5t-3 -8zM187 -60v737h447v-94q0 -7 5 -12.5t12 -5.5h96v-225q29 -3 57 -12v255q0 12 -8 21l-125 122q-8 9 -20 9h-493q-12 0 -20.5 -8.5
t-8.5 -20.5v-795q0 -12 8.5 -20.5t20.5 -8.5h375q-26 26 -44 58h-302zM962 71.5q0 9.5 -8 15.5l-175 127q-5 4 -12 3v0h-4q-2 -1 -4 -1q-10 -6 -10 -17v-83h-172q-19 0 -32 -13t-13 -31.5t13 -31.5t32 -13h172v-36v-47v-4q0 -1 1 -2q0 -1 1 -3l1 -1q1 -2 2 -3q2 -2 5 -4
q10 -5 20 2l175 127q8 6 8 15.5z" />
    <glyph glyph-name="uniE62F" unicode="&#xe62f;" horiz-adv-x="1756" 
d="M1371 444l-321 46l-143 291l-144 -291l-320 -46l232 -226l-55 -320l287 151l286 -151l-54 320zM907 121z" />
    <glyph glyph-name="uniE630" unicode="&#xe630;" 
d="M884.5 547q-10.5 12 -25.5 12h-534q-14 0 -24.5 -12t-10.5 -30v-622q0 -17 10.5 -29.5t24.5 -12.5h410q4 0 18 12.5t31.5 31t37.5 41.5t36 44t26.5 36.5t10.5 21.5v477q0 18 -10.5 30zM341 264q0 7 5 12.5t13 5.5h467q7 0 12.5 -5.5t5.5 -12.5v-15q0 -7 -5.5 -12.5
t-12.5 -5.5h-467q-8 0 -13 5.5t-5 12.5v15zM844 122q0 -7 -5 -12.5t-13 -5.5h-467q-7 0 -12.5 5.5t-5.5 12.5v14q0 8 5.5 13.5t12.5 5.5h467q8 0 13 -5.5t5 -13.5v-14zM844 376q0 -8 -5 -13t-13 -5h-467q-7 0 -12.5 5t-5.5 13v14q0 8 5.5 13.5t12.5 5.5h467q8 0 13 -5.5
t5 -13.5v-14zM227 618h540v83q0 7 -5 12t-12 5h-604q-7 0 -12 -5t-5 -12v-767q0 -7 5 -12.5t12 -5.5h81v702z" />
    <glyph glyph-name="uniE631" unicode="&#xe631;" 
d="M512 812l-399 -238l402 -240l398 238zM75 27l400 -239v480l-400 239v-480zM549 265v-477l400 239v477z" />
    <glyph glyph-name="uniE632" unicode="&#xe632;" 
d="M793 761h-225l-517 -515l405 -406l517 515v227zM938 369l-482 -481l-356 358l482 481h197l159 -159v-199zM700 557q0 -28 20 -48t48 -20t48 20t20 48t-20 48t-48 20t-48 -20t-20 -48zM802 557q0 -14 -10 -24t-24 -10t-24 10t-10 24t10 24t24 10t24 -10t10 -24z" />
    <glyph glyph-name="uniE633" unicode="&#xe633;" 
d="M398 316q-1 8 6 11q19 10 59 30q101 52 131 67q18 9 27 -1q1 -1 3 -1.5t3 -1.5q49 -29 102 -2q56 28 59 92q-1 17 -1 18q-5 36 -32 62t-62 30q-29 4 -58.5 -9.5t-45.5 -38.5q-18 -29 -18 -64q0 -6 -4 -8l-40 -20q-46 -24 -63 -32q-85 -43 -99 -50q-5 -3 -11 1
q-31 23 -65.5 23t-64.5 -23q-52 -40 -40 -107q7 -39 40 -65q27 -21 60.5 -22t62.5 18q7 4 13 1l25 -12q17 -9 26 -14q5 -2 59 -30t82 -42q10 -5 15 -11t6 -17q2 -49 51 -81q16 -11 45 -14q59 -7 96 40q38 50 13 110q-13 33 -46 50.5t-67 12.5q-33 -5 -53 -22q-6 -6 -11 -3
q-9 5 -25 13t-22 10q-24 13 -72 37.5t-73 36.5q-9 5 -10.5 8t-0.5 13v7z" />
    <glyph glyph-name="uniE634" unicode="&#xe634;" 
d="M512 803q-102 0 -195 -40t-160.5 -107.5t-107.5 -160.5t-40 -195t40 -195t107.5 -160.5t160.5 -107.5t195 -40t195 40t160.5 107.5t107.5 160.5t40 195t-40 195t-107.5 160.5t-160.5 107.5t-195 40zM474 338l76 -76l-237 -161zM145 44l14 10q-4 6 -9 15l-15 -10
q-19 30 -33 61l49 21q-2 6 -7 16l-49 -20q-13 33 -20 67l17 3q-1 4 -3 18l-18 -3q-6 34 -7 69h54q0 1 -0.5 4t-0.5 5t0.5 5t0.5 4h-54q1 35 7 70l18 -4q2 14 3 18l-17 3q7 34 20 67l49 -20q5 10 7 16l-49 21q14 31 33 61l15 -10q5 10 9 15l-14 10q20 28 44 54l38 -38
q6 7 13 13l-38 38q26 24 54 44l10 -14q4 2 15 10l-10 14q30 19 61 33l21 -49q4 2 16 7l-20 49q33 13 67 20l3 -17q5 1 18 3l-4 18q35 6 70 7v-54q1 0 4 0.5t5 0.5t5 -0.5t4 -0.5v54q35 -1 70 -7l-4 -18q14 -2 18 -3l3 17q33 -7 67 -20l-20 -49q10 -5 16 -7l21 49
q31 -14 61 -33l-10 -14l15 -10l10 14q29 -20 54 -44l-13 -13l-362 -245l-245 -362l-13 -13q-24 25 -44 54zM835 -10l-38 38q-6 -7 -13 -13l38 -38q-26 -24 -54 -44l-10 14q-4 -3 -15 -9l10 -15q-30 -19 -61 -33l-21 49q-5 -2 -16 -7l20 -49q-34 -13 -67 -20l-3 17
q-3 -1 -18 -3l4 -18q-35 -6 -70 -7v54q-1 0 -4 -0.5t-5 -0.5t-5 0.5t-4 0.5v-54q-35 1 -70 7l4 18q-13 2 -18 3l-3 -17q-34 7 -67 20l20 49q-10 4 -16 7l-21 -49q-31 13 -61 33l10 15l-15 9l-10 -14q-28 20 -54 44l13 13l362 245l245 362l13 13q24 -26 44 -54l-14 -10
q4 -6 9 -15l15 10q19 -30 33 -61l-49 -21q2 -4 7 -16l49 20q13 -33 20 -67l-17 -3q1 -5 3 -18l18 4q6 -35 7 -70h-54q0 -1 0.5 -4t0.5 -5t-0.5 -5t-0.5 -4h54q-1 -35 -7 -69l-18 3l-3 -18l17 -3q-7 -33 -20 -67l-49 21q-5 -13 -7 -17l49 -21q-14 -31 -33 -61l-15 10
q-5 -9 -9 -15l14 -10q-20 -29 -44 -54z" />
    <glyph glyph-name="uniE635" unicode="&#xe635;" 
d="M607 209l-165 298l-233 -419h605l-139 233zM861 693h-699q-38 0 -65.5 -27t-27.5 -66v-559q0 -38 27.5 -65.5t65.5 -27.5h699q38 0 65.5 27.5t27.5 65.5v559q0 39 -27.5 66t-65.5 27zM907 88q0 -39 -27 -66t-66 -27h-605q-39 0 -66 27t-27 66v465q0 39 27 66.5t66 27.5
h605q39 0 66 -27.5t27 -66.5v-465zM744 553q-29 0 -49 -20.5t-20 -49t20 -49t49 -20.5t49.5 20.5t20.5 49t-20.5 49t-49.5 20.5zM744 553z" />
    <glyph glyph-name="uniE636" unicode="&#xe636;" 
d="M512 812q-104 0 -199 -40.5t-163.5 -109t-109 -163.5t-40.5 -199t40.5 -199t109 -163.5t163.5 -109t199 -40.5t199 40.5t163.5 109t109 163.5t40.5 199t-40.5 199t-109 163.5t-163.5 109t-199 40.5zM444 45q-38 -38 -93 -38t-93.5 38.5t-38.5 93.5t38 93l133 133
q39 39 93.5 39t93.5 -39l4 -4l2 -2q3 -3 5 -7l1 -1q11 -21 -6 -37.5t-37 -5.5q-1 -1 -14 12q-20 20 -48.5 20.5t-48.5 -20.5l-133 -132q-20 -21 -20 -49.5t20 -48.5t48.5 -20t49.5 20l80 80q44 -22 88 -1zM767 368l-133 -133q-39 -39 -93.5 -39t-93.5 39l-4 4l-2 2
q-3 3 -5 7l-1 1q-11 21 6 37.5t37 5.5q1 1 14 -12q20 -20 48.5 -20.5t48.5 20.5l133 132q20 21 20 49.5t-20 48.5t-48.5 20t-49.5 -20l-80 -80q-44 22 -88 1l124 124q38 38 93 38t93.5 -38.5t38.5 -93.5t-38 -93zM767 368z" />
    <glyph glyph-name="uniE637" unicode="&#xe637;" 
d="M849 670v55q0 41 -24 64t-67 23t-67.5 -23t-24.5 -64v-55h-62v55q0 41 -24 64t-67 23t-67.5 -23t-24.5 -64v-55h-62v55q0 41 -24.5 64t-67.5 23t-67 -23t-24 -64v-55h-105v-882h882v882h-104zM266 150v-136h-122v136h122zM144 174v148h122v-148h-122zM291 150h589v-136
h-589v136zM291 174v148h589v-148h-589zM715 725q0 20 10 29t32.5 9t32.5 -9t10 -29v-147q0 -20 -10 -29t-32.5 -9t-32.5 9t-10 29v147zM470 725q0 20 10 29t32.5 9t32.5 -9t10 -29v-147q0 -20 -10 -29t-32.5 -9t-32.5 9t-10 29v147zM880 474v-127h-589v127h589zM225 725
q0 20 10 29t32.5 9t32.5 -9t10 -29v-147q0 -20 -10 -29t-32.5 -9t-32.5 9t-10 29v147zM266 474v-127h-122v127h122zM144 -10h122v-128h-122v128zM291 -138v128h589v-128h-589z" />
    <glyph glyph-name="uniE638" unicode="&#xe638;" horiz-adv-x="1025" 
d="M929 427h-15q-39 0 -47 20t20 48l19 19q27 27 27 66.5t-27 67.5l-46 46q-28 27 -67.5 27t-66.5 -27l-19 -19q-28 -28 -48 -20t-20 47v15q0 39 -28 67t-67 28h-64q-39 0 -67 -28t-28 -67v-15q0 -39 -20 -47t-48 20l-19 19q-27 27 -66.5 27t-67.5 -27l-46 -46
q-27 -28 -27 -67.5t27 -66.5l19 -19q28 -28 20 -48t-47 -20h-15q-39 0 -67 -28t-28 -67v-64q0 -39 28 -67t67 -28h15q39 0 47 -20t-20 -48l-19 -19q-27 -27 -27 -66.5t27 -67.5l46 -46q28 -27 67.5 -27t66.5 27l19 19q28 28 48 20t20 -47v-15q0 -39 28 -67t67 -28h64
q39 0 67 28t28 67v15q0 39 20 47t48 -20l19 -19q27 -27 66.5 -27t67.5 27l46 46q27 28 27 67.5t-27 66.5l-19 19q-28 28 -20 48t48 20h14q39 0 67 28t28 67v64q0 39 -28 67t-67 28zM511.5 107q-79.5 0 -135.5 56t-56 135t56 135t135.5 56t135.5 -56t56 -135t-56 -135
t-135.5 -56z" />
    <glyph glyph-name="uniE639" unicode="&#xe639;" 
d="M821 598q-24 21 -55 19t-52 -25.5t-19 -54.5t25 -52q49 -44 77 -104.5t28 -128.5q0 -130 -91.5 -221.5t-221.5 -91.5t-221.5 91.5t-91.5 221.5q0 69 28 129.5t78 104.5q23 21 25 52t-19 54.5t-52 25.5t-54 -19q-74 -65 -115.5 -155.5t-41.5 -191.5q0 -95 37 -180.5
t99 -148t148 -99t180 -36.5t180 36.5t148 99t99 148t37 180.5q0 101 -41.5 191t-113.5 155zM513.5 175q31.5 0 53.5 22t22 54v485q0 32 -22 54t-53.5 22t-53.5 -22t-22 -54v-485q0 -32 22 -54t53.5 -22z" />
    <glyph glyph-name="uniE63A" unicode="&#xe63a;" horiz-adv-x="1025" 
d="M320 438q15 0 24 9t9 24t-9 24t-24 9t-27 -9.5t-12 -23.5t12 -23.5t27 -9.5zM502 504q-15 0 -27 -9.5t-12 -23.5t12 -23.5t27 -9.5t24 9t9 24t-9 24t-24 9zM730 260q14 0 23 8t9 18.5t-9 18.5t-23 8q-10 0 -18 -8.5t-8 -18t8 -18t18 -8.5zM587 260q14 0 23 8t9 18.5
t-9 18.5t-23 8q-10 0 -18 -8.5t-8 -18t8 -18t18 -8.5zM0 300q0 -104 40.5 -199t109 -163.5t163.5 -109t199 -40.5t199 40.5t163.5 109t109 163.5t40.5 199t-40.5 199t-109 163.5t-163.5 109t-199 40.5t-199 -40.5t-163.5 -109t-109 -163.5t-40.5 -199zM642 432
q-92 0 -156.5 -60.5t-64.5 -147.5q0 -27 8 -55q-12 -1 -24 -1q-26 0 -91 13l-91 -46l26 79q-104 74 -104 178q0 93 76 158.5t184 65.5q96 0 170.5 -53t91.5 -132q-13 1 -25 1zM879 227q0 -82 -91 -151l20 -66l-72 39q-52 -13 -78 -13q-92 0 -156.5 56t-64.5 135t64.5 135
t156.5 56q89 0 155 -56.5t66 -134.5zM879 227z" />
    <glyph glyph-name="uniE63B" unicode="&#xe63b;" 
d="M63 812h102v-1024h-102v1024zM961 812h-126v-565l-113 122l-113 -122v565h-390v-1024h742v1024zM609 247zM835 247zM835 247zM609 247z" />
    <glyph glyph-name="uniE63C" unicode="&#xe63c;" 
d="M369 -18v-1q-4 0 -8.5 -0.5t-5.5 -0.5h-3q-52 0 -89 36.5t-38 88.5q-2 53 34 91q37 39 89 40h2h2q40 0 74 -24q46 -16 92 45t19 95q-9 7 -18 17q-2 1 -3 3q-31 35 -33 80q-1 53 35 91t89 40h1h3q44 0 78.5 -28t44.5 -71q6 -18 8 -43t-1.5 -68t-28 -100.5t-68.5 -116.5
q-41 -55 -85 -93t-81.5 -54t-62.5 -21.5t-46 -5.5zM365 46q9 0 20.5 1t36.5 9t49 22.5t57.5 44.5t64.5 71q38 52 59.5 101.5t24 85.5t1 54.5t-5.5 31.5q-5 23 -22.5 37.5t-39.5 14.5q-27 -1 -45 -20t-18 -45q1 -23 17 -40v-1q6 -6 12 -10q4 -3 6 -6q10 -10 16.5 -24
t11 -36.5t-5.5 -53.5t-35 -64q-55 -74 -124 -74q-24 0 -47 9q-4 2 -8 5q-17 14 -38 14q-28 -1 -46 -20t-17 -45q0 -26 18.5 -44t44.5 -18q1 1 3 1q6 0 10 -1zM512 -151q-91 0 -174 35q-12 5 -17 17t0 24.5t17.5 17.5t24.5 0q71 -30 149 -30q104 0 192.5 51.5t140 140
t51.5 192.5t-51.5 192.5t-140 140t-192.5 51.5t-192.5 -51.5t-140 -140t-51.5 -192.5q0 -111 59 -204q7 -11 4 -24t-14.5 -20t-24.5 -4t-20 14q-68 109 -68 238q0 91 35.5 174t95.5 143t143 95.5t174 35.5t174 -35.5t143 -95.5t95.5 -143t35.5 -174t-35.5 -174t-95.5 -143
t-143 -95.5t-174 -35.5z" />
    <glyph glyph-name="uniE63D" unicode="&#xe63d;" 
d="M512 44q-13 0 -22.5 9.5t-9.5 22.5v96q0 13 9.5 22.5t22.5 9.5t22.5 -9.5t9.5 -22.5v-96q0 -13 -9.5 -22.5t-22.5 -9.5zM832 -148h-640q-40 0 -68 28t-28 68v352q0 40 28 68t68 28h640q40 0 68 -28t28 -68v-352q0 -40 -28 -68t-68 -28zM192 332q-13 0 -22.5 -9.5
t-9.5 -22.5v-352q0 -13 9.5 -22.5t22.5 -9.5h640q13 0 22.5 9.5t9.5 22.5v352q0 13 -9.5 22.5t-22.5 9.5h-640zM736 332q-13 0 -22.5 9.5t-9.5 22.5v130q0 78 -61 134t-133 56q-74 0 -132 -52.5t-58 -137.5v-130q0 -13 -9.5 -22.5t-22.5 -9.5t-22.5 9.5t-9.5 22.5v130
q0 76 38 135.5t95 89t121 29.5q62 0 121 -31.5t98 -91t39 -131.5v-130q0 -13 -9.5 -22.5t-22.5 -9.5z" />
    <glyph glyph-name="uniE63E" unicode="&#xe63e;" 
d="M148 812v-66h-35q-25 0 -39.5 -15.5t-14.5 -42.5t14.5 -42.5t39.5 -15.5h35v-39h-35q-25 0 -39.5 -15.5t-14.5 -42.5t14.5 -42.5t39.5 -15.5h35v-39h-35q-25 0 -39.5 -15.5t-14.5 -42.5t14.5 -42.5t39.5 -15.5h35v-14v-12v-14h-35q-25 0 -39.5 -15.5t-14.5 -42.5
t14.5 -42.5t39.5 -15.5h35v-39h-35q-25 0 -39.5 -15.5t-14.5 -42.5t14.5 -42.5t39.5 -15.5h35v-39h-35q-25 0 -39.5 -15.5t-14.5 -42.5t14.5 -42.5t39.5 -15.5h35v-66h817v506v12v506h-817zM207 -115h-94q-23 0 -23 27t23 27h94q24 0 24 -27t-24 -27zM207 40h-94
q-23 0 -23 27t23 27h94q24 0 24 -27t-24 -27zM207 195h-94q-23 0 -23 27t23 27h94q24 0 24 -27t-24 -27zM207 351h-94q-23 0 -23 27t23 27h94q24 0 24 -27t-24 -27zM207 506h-94q-23 0 -23 27t23 27h94q24 0 24 -27t-24 -27zM207 661h-94q-23 0 -23 27t23 27h94q24 0 24 -27
t-24 -27zM819 82h-490v51q0 3 2 8.5t17 21t42 27.5q7 3 31.5 17t51 25t55.5 16q-19 21 -42 79q-7 16 -7 59q0 4 -0.5 18t0 24.5t1.5 16.5q19 66 93.5 66t93.5 -66q2 -6 2 -16.5t-0.5 -24.5t-0.5 -18q0 -43 -7 -59q-22 -58 -42 -79q29 -5 55.5 -16t51.5 -25t32 -17
q27 -12 42.5 -26.5t17.5 -22.5l1 -8v-51z" />
    <glyph glyph-name="uniE63F" unicode="&#xe63f;" horiz-adv-x="1054" 
d="M66 624q-27 0 -46.5 -19t-19.5 -46v-637l129 -131q20 -19 33.5 -13.5t13.5 32.5v112h460q28 0 47 19.5t19 46.5v66h-505q-18 0 -41.5 24t-23.5 42v504h-66zM176 164q0 -28 19 -47t46 -19h637v-112q0 -28 13 -33.5t32 14.5l128 131h2v636q0 27 -19 46.5t-47 19.5h-746
q-27 0 -46 -19.5t-19 -46.5v-570zM812 449q0 27 19 46.5t46.5 19.5t46.5 -19.5t19 -46.5t-19 -46.5t-46.5 -19.5t-46.5 19.5t-19 46.5zM549 449q0 27 19 46.5t46.5 19.5t46.5 -19.5t19 -46.5t-19 -46.5t-46.5 -19.5t-46.5 19.5t-19 46.5zM285 449q0 27 19.5 46.5t46.5 19.5
t46.5 -19.5t19.5 -46.5t-19.5 -46.5t-46.5 -19.5t-46.5 19.5t-19.5 46.5z" />
    <glyph glyph-name="uniE640" unicode="&#xe640;" 
d="M954 619h1h-884h883zM513 131l-29 28l-97 87l-281 -265h813l-280 265l-97 -89zM64 545v-513l275 256zM961 32v513l-275 -257zM513 207l441 412h-883zM513 207z" />
    <glyph glyph-name="uniE641" unicode="&#xe641;" 
d="M652 750l-430 -431l225 -225l431 430zM96 -32l270 72l-194 193zM448 -160h128v128h-128v-128zM640 -160h128v128h-128v-128zM832 -32v-128h128v128h-128z" />
    <glyph glyph-name="uniE642" unicode="&#xe642;" 
d="M512 567q-50 0 -102 -16.5t-94 -40.5t-84 -57t-70 -60.5t-54 -57.5t-34 -40.5t-12 -16.5q2 -6 7.5 -16.5t24.5 -41t42 -57.5t61.5 -60.5t82 -57.5t104.5 -40.5t128 -16.5q53 0 102 10t87.5 26.5t73 38.5t60.5 46t48 48t36.5 45.5t24.5 38.5t14 27l5 10q-4 6 -12 16.5
t-34 40.5t-54 57t-70 60.5t-84 57.5t-94.5 40.5t-102.5 16.5zM512.5 104q-93.5 0 -159.5 51t-66 123t66 122.5t159.5 50.5t159.5 -50.5t66 -122.5t-66 -123t-159.5 -51zM512.5 393q-46.5 0 -79.5 -33.5t-33 -81.5t33 -82t79.5 -34t79.5 34t33 82t-33 81.5t-79.5 33.5z" />
    <glyph glyph-name="uniE643" unicode="&#xe643;" 
d="M63 258l309 -97l381 334l-295 -359l331 -106l170 676zM448 -103l108 153l-108 33v-186z" />
    <glyph glyph-name="uniE644" unicode="&#xe644;" 
d="M692 181h-224q-10 0 -17.5 7.5t-7.5 18t7.5 18t17.5 7.5h224q8 0 13.5 6t5.5 14v313q0 8 -5.5 13.5t-13.5 5.5h-582q-8 0 -13.5 -5.5t-5.5 -13.5v-313q0 -8 5.5 -14t13.5 -6q11 0 18.5 -7.5t7.5 -18t-7.5 -18t-18.5 -7.5q-29 0 -49.5 20.5t-20.5 50.5v313q0 29 20.5 49.5
t49.5 20.5h582q29 0 49.5 -20.5t20.5 -49.5v-313q0 -30 -20.5 -50.5t-49.5 -20.5zM915 -42h-581q-29 0 -49.5 20.5t-20.5 49.5v313q0 29 20.5 49.5t49.5 20.5h224q10 0 17.5 -7.5t7.5 -18t-7.5 -18t-17.5 -7.5h-224q-8 0 -13.5 -5.5t-5.5 -13.5v-313q0 -8 5.5 -13.5
t13.5 -5.5h581q8 0 14 5.5t6 13.5v313q0 8 -6 13.5t-14 5.5q-10 0 -17.5 7.5t-7.5 18t7.5 18t17.5 7.5q30 0 50.5 -20.5t20.5 -49.5v-313q0 -29 -20.5 -49.5t-50.5 -20.5z" />
    <glyph glyph-name="uniE645" unicode="&#xe645;" 
d="M512 812q-104 0 -199 -40.5t-163.5 -109t-109 -163.5t-40.5 -199t40.5 -199t109 -163.5t163.5 -109t199 -40.5t199 40.5t163.5 109t109 163.5t40.5 199t-40.5 199t-109 163.5t-163.5 109t-199 40.5zM464 45q-66 0 -126 19.5t-99 59t-39 89.5q0 83 94 177q59 59 120 83
t87 -3q23 -22 7 -73q-4 -11 6 -10q9 1 9 3q49 20 86.5 20t53.5 -21q16 -23 0 -63q-3 -8 -0.5 -11t11.5 -5q31 -10 53.5 -31.5t22.5 -54.5q0 -65 -82 -122t-204 -57zM701 377q7 21 -8 38t-38 13q-8 -2 -15.5 2.5t-9 13t3 16t12.5 8.5q47 10 78 -24.5t17 -79.5
q-3 -8 -10.5 -12t-16 -1.5t-12 10t-1.5 16.5zM822 337q-3 -9 -11.5 -13.5t-18.5 -1.5t-14.5 12t-1.5 18q10 29 3.5 60.5t-28 55.5t-52 33.5t-60.5 3.5q-10 -2 -18.5 3.5t-10.5 15t3.5 18t15.5 10.5q43 9 85.5 -4t73 -47t39.5 -78.5t-5 -85.5zM640.5 233.5
q-5.5 51.5 -64 82.5t-137 23t-130.5 -49.5t-46.5 -93t64 -82.5t137 -23t130.5 49.5t46.5 93zM531 177q-16 -36 -56 -52.5t-79 -4.5q-37 12 -51.5 44.5t2.5 66.5q16 33 53 49t74 6q39 -10 56 -41.5t1 -67.5zM424.5 214q-12.5 5 -26 0.5t-21 -16t-4.5 -24t15 -18t26.5 -1
t22 17t4 24.5t-16 17zM464 231q-11 4 -17.5 -7t4.5 -16q12 -4 19 7q6 11 -6 16z" />
    <glyph glyph-name="uniE646" unicode="&#xe646;" 
d="M1005 300q0 -29 -22.5 -67.5t-67.5 -78.5t-103.5 -74t-137.5 -56t-162 -22q-81 0 -159.5 21.5t-137 55.5t-104 74t-69 78.5t-23.5 68.5t23.5 68.5t69 78.5t104.5 74t137 55t159 21q84 0 163 -21t137.5 -55t103 -74t67.5 -78.5t22 -68.5zM512.5 543q-98.5 0 -168 -71
t-69.5 -172t69.5 -172t168 -71t168 71t69.5 172t-69.5 172t-168 71zM512 455q-63 0 -107 -45.5t-44 -109.5t44 -109.5t107 -45.5t107 45.5t44 109.5t-44 109.5t-107 45.5z" />
    <glyph glyph-name="uniE647" unicode="&#xe647;" 
d="M976 245l-25 26l-34 36l-420 440l-19 20l-27 -5l-211 -40h-7l-35 -3l-11 -34l-65 -213l-8 -25l16 -20l376 -512l30 -42l42 31l41 30l17 -17l37 35l40 38l63 61l99 74l40 31l-13 17l38 37zM827 190l17 -24l-101 -76l-26 -19l-125 -93l-45 -33l-376 512l65 213l227 14
l361 -490h-1zM846 190l-1 1l-9 12l-360 490l-5 7l-9 -1l-97 -5l95 18l420 -440v-1l4 -4l20 -21zM387 583q-18 13 -41 13q-15 0 -29 -6q-20 -8 -32 -27q-13 -18 -13 -41q0 -15 6 -28q9 -21 27 -33q19 -12 41 -12q15 0 29 5q20 9 32 27q13 19 13 41q0 15 -6 29q-8 20 -27 32z
M400 500q-7 -16 -21 -26q-15 -10 -33 -10q-12 0 -23 4q-15 7 -25 22q-10 14 -10 32q0 12 4 23q7 16 22 26q14 10 32 10q12 0 23 -5q16 -7 26 -21q10 -15 10 -33q0 -12 -5 -22z" />
    <glyph glyph-name="uniE648" unicode="&#xe648;" 
d="M353 577zM641 286zM337 589q0 11 -6 17t-14.5 6t-14 -6t-5.5 -17v-9h40v9zM758 562v-53q0 -24 -17.5 -42t-42.5 -18t-42.5 17.5t-17.5 42.5v61h-261v-61q0 -24 -17.5 -42t-42.5 -18t-42.5 18t-17.5 42v53q-36 -12 -58.5 -43t-22.5 -70v-354q0 -51 36 -94t85 -43h421
q49 0 85 43t36 94v354q0 39 -22.5 70t-58.5 43zM758 95q0 -18 -12 -36.5t-28 -18.5h-421q-16 0 -28 18.5t-12 36.5v222h501v-222zM316.5 489q8.5 0 14.5 6t6 14v72h-40v-72q0 -8 5.5 -14t14 -6zM718 587q0 10 -5.5 16t-14 6t-14.5 -6t-6 -16v-7h40v7zM698.5 487
q8.5 0 14 5.5t5.5 14.5v74h-40v-74q0 -9 6 -14.5t14.5 -5.5zM592 207h83v-84h-83v84z" />
    <glyph glyph-name="uniE649" unicode="&#xe649;" 
d="M473 247v325h83v-243h243v-82h-326zM512 -154q-90 0 -171.5 35t-141 94.5t-94.5 141t-35 171.5t35 171.5t94.5 141t141 94.5t171.5 35t171.5 -35t141 -94.5t94.5 -141t35 -171.5t-35 -171.5t-94.5 -141t-141 -94.5t-171.5 -35zM512 -69q97 0 179 48t130 130t48 179
t-48 179t-130 130t-179 48t-179 -48t-130 -130t-48 -179t48 -179t130 -130t179 -48z" />
    <glyph glyph-name="uniE64A" unicode="&#xe64a;" 
d="M854 376q0 96 -47 176.5t-128 127.5t-176 47t-176 -47t-128 -127.5t-47 -176.5q0 -18 3 -38q-3 0 -3 -1q24 -195 236 -380q63 -55 115 -87q238 153 322 360q26 65 29 107h-3q3 22 3 39zM776 337q-7 -54 -26 -105t-44 -89t-52.5 -71t-54.5 -56t-48.5 -38.5t-35 -23.5
t-12.5 -6q-190 137 -255 319q-15 43 -18 70h3q-3 22 -3 39q0 113 80 193t193 80t193 -80t80 -193q0 -17 -3 -38q3 0 3 -1zM503 493q-48 0 -82.5 -34t-34.5 -82.5t34.5 -82.5t82.5 -34t82.5 34t34.5 82.5t-34.5 82.5t-82.5 34z" />
    <glyph glyph-name="uniE64B" unicode="&#xe64b;" 
d="M805 -146h-582q-13 0 -23 10t-10 24v335q0 14 10 24t23.5 10t23.5 -10t10 -24v-302h515v309q0 14 10 23.5t23.5 9.5t23.5 -9.5t10 -23.5v-342q0 -14 -10 -24t-24 -10zM925 236q-14 0 -23 9l-393 364l-390 -360q-9 -9 -23 -9t-23.5 9t-9.5 21.5t9 21.5l413 382
q10 9 23.5 9t23.5 -9l417 -386q9 -9 9 -21.5t-9.5 -21.5t-23.5 -9z" />
    <glyph glyph-name="uniE64C" unicode="&#xe64c;" 
d="M520 744l5 6l-6 -5l-7 7l-462 -462l27 -26l435 435l435 -435l27 26zM794 -114h-189v187h-186v-187h-188v428h-38v-466h639v466h-38v-428zM457 35h110v-149h-110v149z" />
    <glyph glyph-name="uniE64D" unicode="&#xe64d;" 
d="M502 330zM414 216h-97v97h97v-97zM560 313h-97v-97h97v97zM707 313h-97v-97h97v97zM414 171h-97v-97h97v97zM560 171h-97v-97h97v97zM707 171h-97v-97h97v97zM743 508q0 -12 -9 -21t-21.5 -9t-21 9t-8.5 21v75q0 13 8.5 21.5t21 8.5t21.5 -8.5t9 -21.5v-75zM339 583
q0 13 -9 21.5t-21 8.5t-21 -8.5t-9 -21.5v-75q0 -12 9 -21t21 -9t21 9t9 21v75zM779 540v-31q0 -27 -19.5 -46.5t-47 -19.5t-46.5 19.5t-19 46.5v31h-272v-31q0 -27 -19.5 -46.5t-46.5 -19.5t-46.5 19.5t-19.5 46.5v31h-72v-590h678v590h-70zM783 15h-546v366h546v-366z" />
    <glyph glyph-name="uniE64E" unicode="&#xe64e;" 
d="M511.5 542q125.5 0 228.5 -66.5t155 -175.5h66q-55 135 -177 219t-272.5 84t-273 -84t-176.5 -219h66q52 109 155 175.5t228.5 66.5zM511.5 57q-125.5 0 -228.5 66.5t-155 176.5h-66q54 -136 176.5 -220t273 -84t272.5 84t177 220h-66q-52 -110 -155 -176.5t-228.5 -66.5
zM350 300q0 -67 47 -114.5t114.5 -47.5t114.5 47.5t47 114.5t-47 114t-114.5 47t-114.5 -47t-47 -114z" />
    <glyph glyph-name="uniE64F" unicode="&#xe64f;" 
d="M211 521h63l30 -521q0 -8 6 -13.5t14 -5.5h388q8 0 14 5.5t6 13.5l30 521h63q9 0 15 6t6 14.5t-6 14.5t-15 6h-76q-1 0 -2 -0.5t-1.5 -0.5t-1.5 0.5t-2 0.5h-107v54q0 8 -6 14t-15 6h-192q-9 0 -15 -6t-6 -14v-54h-107h-2l-1 -1l-1 1h-2h-77q-9 0 -15 -6t-6 -14.5
t6 -14.5t15 -6zM442 595h152v-33h-152v33zM721 521l-28 -499h-349l-29 499h406zM417 60h1q8 0 13.5 6.5t5.5 15.5l-22 379q0 9 -6.5 14.5t-15 5t-14 -7t-4.5 -14.5l21 -380q1 -8 6.5 -13.5t14.5 -5.5zM617 60h2q8 0 14 5.5t6 13.5l22 380q0 8 -5.5 14.5t-14 7t-15 -5
t-6.5 -14.5l-22 -379q0 -9 5.5 -15.5t13.5 -6.5zM517.5 60q8.5 0 14.5 6t6 14v380q0 9 -6 15t-14.5 6t-14.5 -6t-6 -15v-380q0 -8 6 -14t14.5 -6z" />
    <glyph glyph-name="uniE650" unicode="&#xe650;" 
d="M831 50h-321l-129 -130q-9 -8 -21 -5q-4 -2 -7 -2q-10 0 -16.5 6.5t-6.5 16.5v114h-137q-28 0 -48 20t-20 48v501q0 28 20 48t48 20h638q28 0 48 -20t20 -48v-501q0 -28 -20 -48t-48 -20zM853 596q0 19 -13 32t-32 13h-592q-19 0 -32 -13t-13 -32v-455q0 -19 13 -32.5
t32 -13.5h137q9 0 15.5 -6.5t6.5 -16.5v-93l114 116v0h319q19 0 32 13.5t13 32.5v455zM717 277h-410q-9 0 -16 7t-7 16t7 16t16 7h410q9 0 16 -7t7 -16t-7 -16t-16 -7zM717 437h-410q-9 0 -16 6.5t-7 16t7 16t16 6.5h410q9 0 16 -6.5t7 -16t-7 -16t-16 -6.5z" />
    <glyph glyph-name="uniE651" unicode="&#xe651;" 
d="M529 707q-18 9 -34 -4q-31 -27 -98 -78q-95 -73 -121 -82h-126h-1h-1h-57q-11 0 -18.5 -8t-7.5 -19v-434q0 -11 7.5 -19t18.5 -8h206q24 -9 109 -81q46 -39 88 -78q9 -8 21 -8q7 0 13 3q19 8 19 30v756q0 21 -18 30zM495 -27q-25 22 -46 40q-71 60 -102 78.5t-47 18.5h-1
h-1h-1h-158q-13 0 -17.5 5t-4.5 19v333q0 11 3 16t13 5h144q17 0 49.5 18t110.5 78q28 21 58 45v-656zM807 299q0 62 -29.5 114.5t-79.5 82.5q-9 5 -15 5q-11 0 -18.5 -8t-7.5 -19q0 -16 13 -24q38 -23 61 -63t23 -88t-23.5 -89t-63.5 -63q-12 -8 -12 -24q0 -11 7.5 -19
t18.5 -8l13 4q52 29 82.5 82.5t30.5 116.5zM777 635q-9 6 -16 6q-11 0 -18.5 -8t-7.5 -20q0 -16 15 -24q73 -44 116.5 -121.5t43.5 -168.5t-43.5 -168t-116.5 -122q-16 -9 -16 -25q0 -11 8 -19t19 -8q6 0 15 6q85 51 135.5 140.5t50.5 195.5t-50.5 195t-134.5 141zM777 635z
" />
    <glyph glyph-name="uniE652" unicode="&#xe652;" horiz-adv-x="3494" 
d="M1270 556h44v-10h-44v10zM834 636h986v-113h-986v113z" />
    <glyph glyph-name="uniE653" unicode="&#xe653;" 
d="M515.5 -148q-90.5 0 -173.5 36t-143 96t-95.5 143t-35.5 174t35.5 174t95.5 143.5t143 96t173 35.5q91 0 174 -35.5t143 -96t95.5 -143.5t35.5 -174t-35.5 -174t-95.5 -143t-143 -96t-173.5 -36zM515.5 706q-109.5 0 -202.5 -54t-147 -147.5t-54 -203.5t54 -203.5
t147 -147.5t202 -54q110 0 203 54.5t147 147.5t54 203t-54 203t-147 147.5t-202.5 54.5zM771 92h-498q-21 0 -35.5 15t-14.5 36v316q0 21 14.5 36t35.5 15h498q21 0 35.5 -15t14.5 -36v-316q0 -21 -14.5 -36t-35.5 -15zM758 129l-156 142l-25 -23q-23 -20 -55 -20t-55 20
l-25 23l-156 -142h472zM260 440v-285l155 144zM285 473l198 -181q26 -24 38.5 -24t38.5 24l199 181h-474zM784 440l-155 -141l155 -144v285z" />
    <glyph glyph-name="uniE654" unicode="&#xe654;" 
d="M521 776q-96 0 -183.5 -37.5t-150.5 -100.5t-100.5 -150.5t-37.5 -183.5t37.5 -183.5t100.5 -150.5t150.5 -100.5t183.5 -37.5t183.5 37.5t150.5 100.5t100.5 150.5t37.5 183.5t-37.5 183.5t-100.5 150.5t-150.5 100.5t-183.5 37.5zM521 -136q-90 0 -171.5 35t-140 93.5
t-93.5 140t-35 171.5t35 171.5t93.5 140t140 93.5t171.5 35t171.5 -35t140 -93.5t93.5 -140t35 -171.5t-35 -171.5t-93.5 -140t-140 -93.5t-171.5 -35zM461 172q-111 38 -127 44v-59q3 -2 7.5 -6.5t21.5 -15.5t36.5 -20t50 -16t62.5 -7q30 0 58.5 7t48 16.5t34 19t21.5 15.5
l7 7v70q-24 -10 -65.5 -29.5t-57.5 -25.5q-39 -21 -97 0zM792 355q-32 13 -125 49t-120 47q-14 8 -28 8.5t-23.5 -2.5t-30.5 -11q-29 -11 -113 -42.5t-117 -43.5q-25 -10 -32.5 -18t0 -17t31.5 -20q49 -23 238 -95q41 -15 80 2q15 7 205 86v-82l-31 -28l45 -46l46 47l-22 22
v103q2 1 10.5 5t11 6.5t4.5 7t-5.5 10t-23.5 12.5z" />
    <glyph glyph-name="uniE655" unicode="&#xe655;" 
d="M512 778q-97 0 -185.5 -38t-152.5 -102t-102 -152.5t-38 -185.5t38 -185.5t102 -152.5t152.5 -102t185.5 -38t185.5 38t152.5 102t102 152.5t38 185.5t-38 185.5t-102 152.5t-152.5 102t-185.5 38zM830.5 -18.5q-62.5 -62.5 -143.5 -96.5q-83 -35 -175 -35t-175 35
q-81 34 -143.5 96.5t-96.5 143.5q-35 83 -35 175t35 175q34 81 96.5 143.5t143.5 96.5q84 35 175 35t175 -35q81 -34 143.5 -96.5t96.5 -143.5q35 -84 35 -175t-35 -175q-34 -81 -96.5 -143.5zM452 408l-56 -58q23 -53 67.5 -99.5t96.5 -63.5l49 49q115 -21 141 -33
q33 -16 27 -65q-4 -32 -37.5 -68t-84.5 -37q-57 0 -132.5 39.5t-135.5 102.5q-67 71 -107.5 145t-32.5 137q4 32 19 55t34 34t33 15t25 5q30 3 48 -19q7 -9 18.5 -43.5t19.5 -65.5zM388 528q-13 17 -42 11q-11 -3 -24.5 -10t-30 -27t-19.5 -47q-6 -50 29 -123.5t98 -134.5
q134 -131 241 -139q25 -2 46.5 6.5t34.5 22.5t21 26t10 21q4 14 1 27t-10 19q-6 4 -37.5 11.5t-60.5 13.5l-28 5l-51 -51q-64 21 -118 75t-79 124l56 56l-2 6q-2 5 -4.5 14.5t-5.5 20.5t-6.5 23t-7 22t-6.5 18t-5 10zM388 528z" />
    <glyph glyph-name="uniE656" unicode="&#xe656;" 
d="M0 285v29l1 7q3 58 18 113q40 147 155 249q74 65 167 99q65 23 132 27q1 0 23 2h32l4 -1q5 0 13.5 -0.5t15 -1t12.5 -1.5q71 -8 139 -37q99 -42 173 -120q74 -80 110 -183q22 -64 27 -129q0 -1 2 -24v-29l-1 -8q-3 -58 -18 -112q-40 -147 -155 -249q-74 -65 -167 -99
q-65 -23 -132 -27q-1 0 -23 -2h-32l-4 1q-5 0 -13.5 0.5t-15 1t-12.5 1.5q-58 6 -116 28q-102 38 -180 113q-86 85 -126 199q-22 63 -27 129q0 1 -2 24zM983 299q0 95 -37.5 182.5t-100 150.5t-150 100.5t-183 37.5t-182.5 -37t-150 -100t-100.5 -150t-38.5 -183
q0 -95 37.5 -182.5t100 -150.5t150 -100.5t183 -37.5t182.5 37t150 100t100.5 150t38.5 183zM519 598q13 0 23 -5q20 -12 307 -173q4 -2 6 -4q6 -4 5 -11.5t-8 -11.5q-5 -2 -38 -21q-84 -47 -108 -60q-5 -3 -3 -8q10 -33 29.5 -99t29.5 -99q2 -6 -4 -9q-96 -50 -233 -122
q-4 -2 -8 0q-130 68 -234 122q-5 3 -3 8q10 33 29.5 99t29.5 98q1 6 -4 8q-32 18 -145 82q-2 1 -3 1q-8 5 -8 13t8 12q5 3 37 21q220 124 271 152q13 8 24 7zM817 406q-4 2 -4 3q-241 131 -285 154q-9 5 -18 0q-52 -29 -269 -146q-1 -1 -20 -11l7 -4q222 -118 280 -150
q11 -6 23 1q42 22 232 123q3 2 54 30zM317 112l2 -1q138 -72 199 -104q3 -1 6 0q32 17 98 51t100 51q4 3 3 8q-10 29 -51 163l-1 5l-3 -1q-68 -29 -92 -44q-12 -8 -38 -21q-20 -11 -41 0q-16 8 -29 16q-41 24 -96 47l-3 1q-25 -78 -54 -171zM828 208v106q0 13 11 15
q6 2 11 -1.5t6 -10.5v-4v-211q0 -15 -13 -16q-6 -1 -10.5 3t-4.5 10v27v82z" />
    <glyph glyph-name="uniE657" unicode="&#xe657;" horiz-adv-x="1025" 
d="M1024 314v-29l-1 -8q-2 -58 -17 -112q-41 -147 -156 -249q-73 -65 -167 -99q-65 -23 -132 -27q-1 0 -23 -2h-31l-5 1q-4 0 -12.5 0.5t-15.5 1t-13 1.5q-58 6 -115 28q-103 38 -180 113q-87 85 -127 199q-22 63 -26 129q0 1 -2 24v29l1 7q2 58 17 113q41 147 156 249
q73 65 167 99q65 23 132 27q1 0 23 2h31l5 -1q4 0 12.5 -0.5t15.5 -1t13 -1.5q71 -8 138 -37q100 -42 173 -120q75 -80 111 -183q22 -64 26 -129q0 -1 2 -24zM983 299.5q0 95.5 -37.5 182.5t-100.5 150t-150 100.5t-182.5 37.5t-182.5 -37.5t-150 -100.5t-100.5 -150
t-37.5 -182.5t37.5 -182.5t100.5 -150t150 -100.5t182.5 -37.5t182.5 37.5t150 100.5t100.5 150t37.5 182.5zM184 499q-1 12 15 33q25 32 69 65q13 10 23 14q23 8 41 -5q5 -4 8 -9q41 -62 83 -125q13 -21 0 -48q-8 -16 -30 -55q-4 -6 0 -12q30 -39 77 -86q52 -53 91 -82
q4 -3 9 -1q19 11 49 28q18 10 35 10q11 -1 20 -7q95 -63 124 -82q11 -8 15.5 -21.5t-0.5 -26.5t-16 -27q-32 -43 -63 -67q-21 -17 -36 -16q-16 1 -33 5q-44 9 -94 37q-69 39 -143 106q-87 80 -147 158q-51 66 -76 125q-19 46 -21 89zM696 10q10 3 11 3q4 2 10 8q33 28 62 68
q3 4 4 10q3 8 -5 14q-99 66 -113 75q-14 10 -28 2l-6 -3q-48 -27 -63 -36q-4 -2 -7 0q-1 1 -14.5 10.5t-20.5 15.5q-71 58 -134 133q-1 1 -36 48q-3 4 0 8q12 21 35 64l5 10q4 10 -2 19q-11 17 -77 117q-6 9 -15 6q-6 -2 -10 -6q-29 -23 -36 -29q-13 -13 -37 -40
q-4 -5 -4 -12q1 -27 12 -57q20 -56 66 -117q83 -111 201 -209q66 -55 127 -82q38 -16 75 -20z" />
    <glyph glyph-name="uniE658" unicode="&#xe658;" horiz-adv-x="1025" 
d="M1024 314v-29l-1 -8q-2 -58 -17 -112q-41 -147 -156 -249q-73 -65 -167 -99q-65 -23 -132 -27q-1 0 -23 -2h-31l-5 1q-4 0 -12.5 0.5t-15.5 1t-13 1.5q-58 6 -115 28q-103 38 -180 113q-87 85 -127 199q-22 63 -26 129q0 1 -2 24v29l1 7q2 58 17 113q41 147 156 249
q73 65 167 99q65 23 132 27q1 0 23 2h31l5 -1q4 0 12.5 -0.5t15.5 -1t13 -1.5q71 -8 138 -37q100 -42 173 -120q75 -80 111 -183q22 -64 26 -129q0 -1 2 -24zM983 299.5q0 95.5 -37 182.5t-100 150t-150 100.5t-183 37.5t-183 -37t-150 -100t-100.5 -150.5t-37.5 -183
t37 -182.5t100 -150t150 -100.5t183 -37.5t183 37t150 100t100.5 150.5t37.5 183zM512 525h274q30 0 47 -23q10 -13 11 -31v-6v-346q0 -21 -11 -37t-30 -20q-7 -2 -17 -2h-182h-183q-102 0 -183 -1q-24 0 -41 17.5t-17 41.5v174v174q0 22 12.5 38t32.5 20q5 1 15 1h272z
M249 484q6 -7 7 -7q162 -149 195 -179q23 -20 41 -35q20 -15 40 0q13 10 23 19q54 49 217 198l3 4h-526zM250 101h524l-1 1l-1 1l-1 1l-1 1l-1 1h-1l-1 1l-1 1l-1 1l-1 1l-1 1l-1 1l-1 1l-1 1l-1 1l-1 1l-1 1l-1 1h-1l-1 1l-1 1l-1 1l-1 1l-1 1l-1 1l-1 1l-1 1l-1 1l-1 1
l-1 1l-1 1h-1l-1 1l-1 1l-1 1l-1 1l-1 1l-1 1l-1 1l-1 1l-1 1l-1 1l-1 1h-1l-1 1l-1 1l-1 1l-1 1l-1 1l-1 1l-1 1l-1 1l-1 1l-1 1l-1 1l-1 1h-1l-1 1l-1 1l-1 1l-1 1l-1 1l-1 1l-1 1l-1 1l-1 1l-1 1l-1 1h-1l-1 1l-1 1l-1 1l-1 1l-1 1l-1 1l-1 1l-1 1l-1 1l-1 1l-1 1h-1
l-1 1l-1 1l-1 1l-1 1l-1 1l-1 1l-1 1l-1 1l-1 1l-1 1l-1 1l-1 1h-1l-1 1l-1 1l-1 1l-1 1l-1 1l-1 1l-1 1l-1 1l-1 1l-1 1l-1 1h-1l-1 1l-1 1l-1 1l-1 1l-1 1l-1 1l-1 1l-1 1l-1 1l-1 1l-1 1h-1l-1 1l-1 1l-1 1l-1 1l-1 1l-1 1l-1 1l-1 1l-1 1l-1 1l-1 1h-1l-1 1l-1 1l-1 1
l-1 1l-1 1l-1 1l-1 1l-1 1l-1 1l-1 1l-1 1l-1 1h-1l-1 1l-1 1l-1 1l-1 1l-1 1l-1 1l-1 1l-1 1l-1 1l-1 1l-1 1h-1l-1 1l-1 1l-1 1l-1 1l-1 1l-1 1l-1 1l-1 1l-1 1l-1 1l-1 1h-1l-1 1l-1 1l-1 1l-1 1l-2 1q-25 -22 -26 -24q-18 -16 -38 -21q-52 -11 -88 22q-2 2 -26 23h-1
l-2 -2l-1 -1l-1 -1l-1 -1l-1 -1l-1 -1l-1 -1h-1l-1 -1l-1 -1l-1 -1l-1 -1l-1 -1l-1 -1l-1 -1l-1 -1l-1 -1l-1 -1l-1 -1h-1l-1 -1l-1 -1l-1 -1l-1 -1l-1 -1l-1 -1l-1 -1l-1 -1l-1 -1l-1 -1h-1l-1 -1l-1 -1l-1 -1l-1 -1l-1 -1l-1 -1l-1 -1l-1 -1l-1 -1l-1 -1l-1 -1h-1l-1 -1
l-1 -1l-1 -1l-1 -1l-1 -1l-1 -1l-1 -1l-1 -1l-1 -1l-1 -1h-1l-1 -1v-1l-1 -1l-1 -1l-1 -1l-1 -1l-1 -1l-1 -1l-1 -1l-1 -1h-1l-1 -1l-1 -1l-1 -1l-1 -1l-1 -1l-1 -1l-1 -1l-1 -1l-1 -1l-1 -1l-1 -1h-1l-1 -1l-1 -1l-1 -1l-1 -1l-1 -1l-1 -1l-1 -1l-1 -1l-1 -1l-1 -1h-1
l-1 -1l-1 -1l-1 -1l-1 -1l-1 -1l-1 -1l-1 -1l-1 -1l-1 -1l-1 -1l-1 -1h-1l-1 -1l-1 -1l-1 -1l-1 -1l-1 -1l-1 -1l-1 -1l-1 -1l-1 -1l-1 -1h-1l-1 -1l-1 -1l-1 -1l-1 -1l-1 -1l-1 -1l-1 -1l-1 -1l-1 -1l-1 -1l-1 -1h-1l-1 -1l-1 -1l-1 -1l-1 -1l-1 -1l-1 -1l-1 -1l-1 -1
l-1 -1l-1 -1h-1l-1 -1l-1 -1l-1 -1l-1 -1l-1 -1l-1 -1l-1 -1l-1 -1l-1 -1l-1 -1l-1 -1h-1l-1 -1l-1 -1l-1 -1l-1 -1l-1 -1l-1 -1l-1 -1l-1 -1l-1 -1l-1 -1l-1 -1h-1l-1 -1l-1 -1l-1 -1l-1 -1l-1 -1l-1 -1l-1 -1l-1 -1l-1 -1l-1 -1l-1 -1h-1zM394 290l-1 1l-1 1l-1 1l-1 1
l-1 1l-1 1l-1 1h-1l-1 1l-1 1l-1 1l-1 1l-1 1l-1 1l-1 1l-1 1l-1 1l-1 1h-1l-1 1l-1 1l-1 1l-1 1l-1 1l-1 1l-1 1l-1 1l-1 1h-1l-1 1l-1 1l-1 1l-1 1l-1 1l-1 1l-1 1l-1 1l-1 1l-1 1h-1l-1 1l-1 1l-1 1l-1 1l-1 1l-1 1l-1 1l-1 1l-1 1l-2 1l-1 1l-1 1l-1 1l-1 1l-1 1l-1 1
l-1 1l-1 1h-1l-1 1l-1 1l-1 1l-1 1l-1 1l-1 1l-1 1l-1 1l-1 1h-1l-1 1l-1 1l-1 1l-1 1l-1 1l-1 1l-1 1l-1 1l-1 1l-1 1h-1l-1 1l-1 1l-1 1l-1 1l-1 1l-1 1l-1 1l-1 1l-1 1h-1l-1 1l-1 1l-1 1l-1 1l-1 1l-1 1l-1 1l-1 1l-1 1h-1l-1 1l-1 1l-1 1l-1 1l-1 1l-1 1l-1 1l-1 1
l-1 1l-1 1h-1l-1 1l-1 1l-1 1l-1 1l-1 1l-1 1l-1 1l-1 1l-1 1h-1l-1 1l-1 1l-1 1l-1 1l-1 1l-1 1l-1 1l-1 1l-1 1h-1l-1 1l-1 1l-1 1l-1 1l-1 1l-1 1l-1 1l-1 1l-1 1l-1 1h-1l-1 1l-1 1l-1 1l-1 1l-1 1l-1 1l-1 1l-1 1l-1 1h-1l-1 1l-1 1l-1 1l-1 1l-1 1l-1 1l-1 1l-1 1
l-1 1l-1 1h-1l-1 1l-1 1l-1 1l-1 1l-1 1l-1 1l-1 1l-2 1v-316q171 160 173 160zM803 446h-1l-1 -1l-1 -1l-1 -1l-1 -1l-1 -1l-1 -1l-1 -1l-1 -1l-1 -1l-1 -1l-1 -1h-1l-1 -1l-1 -1l-1 -1l-1 -1l-1 -1l-1 -1l-1 -1l-1 -1l-1 -1l-1 -1h-1l-1 -1l-1 -1l-1 -1l-1 -1l-1 -1l-1 -1
l-1 -1l-1 -1l-1 -1l-1 -1h-1l-1 -1l-1 -1l-1 -1l-1 -1l-1 -1l-1 -1l-1 -1l-1 -1l-1 -1l-1 -1h-1l-1 -1l-1 -1l-1 -1l-1 -1l-1 -1l-1 -1l-1 -1l-1 -1l-1 -1l-1 -1h-1l-1 -1l-1 -1l-1 -1l-1 -1l-1 -1l-1 -1l-1 -1l-1 -1l-1 -1h-1l-1 -1l-1 -1l-1 -1l-1 -1l-1 -1l-1 -1l-1 -1
l-1 -1l-1 -1l-1 -1h-1l-1 -1l-1 -1l-1 -1l-1 -1l-1 -1l-1 -1l-1 -1l-1 -1l-1 -1l-1 -1h-1l-1 -1l-1 -1l-1 -1l-1 -1l-1 -1l-1 -1l-1 -1l-1 -1l-1 -1h-1l-1 -1l-1 -1l-1 -1l-1 -1l-1 -1l-1 -1l-1 -1l-1 -1l-1 -1l-1 -1h-1l-1 -1l-1 -1l-1 -1l-1 -1l-1 -1l-1 -1l-1 -1l-1 -1
l-1 -1l-1 -1h-1l-1 -1l-1 -1l-1 -1l-1 -1l-1 -1l-1 -1l-1 -1l-1 -1l-1 -1h-1l-1 -1l-1 -1l-1 -1l-1 -1l-1 -1l-1 -1l-1 -1l-1 -1l-1 -1l-1 -1h-1l-1 -1l-1 -1l-1 -1l-1 -1l-1 -1l-1 -1l-1 -1l-1 -1l-1 -1h-1l-1 -1l-1 -1l-1 -1l-1 -1l-1 -1l-1 -1l-1 -1l-1 -1l-1 -1l-1 -1
h-1l-1 -1l-1 -1l-1 -1l-1 -1l-1 -1l-1 -1l-1 -1l-1 -1l-1 -1l1 -1l1 -1l1 -1l1 -1h1l1 -1l1 -1l1 -1l1 -1l1 -1l1 -1l1 -1l1 -1l1 -1l1 -1l1 -1l1 -1l1 -1l1 -1h1l1 -1l1 -1l1 -1l1 -1l1 -1l1 -1l1 -1l1 -1l1 -1l1 -1l1 -1l1 -1l1 -1h1l1 -1l1 -1l1 -1l1 -1l1 -1l1 -1l1 -1
l1 -1l1 -1l1 -1l1 -1l1 -1l1 -1l1 -1l1 -1l1 -1l1 -1l1 -1l1 -1l1 -1l1 -1h1l1 -1l1 -1l1 -1l1 -1l1 -1l1 -1l1 -1l1 -1l1 -1l1 -1l1 -1l1 -1l1 -1h1l1 -1l1 -1l1 -1l1 -1l1 -1l1 -1l1 -1l1 -1l1 -1l1 -1l1 -1l1 -1l1 -1h1l1 -1l1 -1l1 -1l1 -1l1 -1l1 -1l1 -1l1 -1l1 -1
l1 -1l1 -1l1 -1l1 -1h1l1 -1l1 -1l1 -1l1 -1l1 -1l1 -1l1 -1l1 -1l1 -1l1 -1l1 -1l1 -1l1 -1h1l1 -1l1 -1l1 -1l1 -1l1 -1l1 -1l1 -1l1 -1l1 -1l1 -1l1 -1l1 -1l1 -1h1l1 -1l1 -1l1 -1l1 -1l1 -1l1 -1l1 -1l1 -1l1 -1l1 -1l1 -1l1 -1l1 -1h1l1 -1l1 -1l1 -1l1 -1l1 -1l1 -1
l1 -1l1 -1l1 -1l1 -1l1 -1l1 -1l1 -1l1 -1h1l1 -1l1 -1l1 -1l1 -1l1 -1l1 -1l1 -1l1 -1l1 -1l1 -1l1 -1l1 -1l1 -1h1l1 -1l1 -1l1 -1v316z" />
    <glyph glyph-name="uniE659" unicode="&#xe659;" 
d="M548 252q0 20 -7.5 37t-20.5 29.5t-30.5 20t-37.5 7.5h-257q-19 0 -36.5 -7.5t-31 -20t-21 -29.5t-7.5 -37v-251q0 -19 7.5 -37t21 -30.5t31 -20t36.5 -7.5h257q20 0 37.5 7.5t30.5 20t20.5 30.5t7.5 37v251zM879 73q26 0 44.5 18.5t18.5 43.5v147q0 26 -18.5 44.5
t-44.5 18.5h-153q-26 0 -45 -18.5t-19 -44.5v-147q0 -25 19 -43.5t45 -18.5h153zM879 403q26 0 44.5 18t18.5 44v148q0 25 -18.5 43.5t-44.5 18.5h-153q-26 0 -45 -18.5t-19 -43.5v-148q0 -26 19 -44t45 -18h153zM484 403q26 0 45.5 18t19.5 44v148q0 25 -19.5 43.5
t-45.5 18.5h-152q-26 0 -45 -18.5t-19 -43.5v-148q0 -26 19 -44t45 -18h152z" />
    <glyph glyph-name="uniE65A" unicode="&#xe65a;" 
d="M466 -5q-9 9 -18 0l-39 39q38 51 33.5 116t-50.5 111q-51 51 -123.5 51t-123.5 -51t-51 -123.5t51 -123.5q46 -46 111.5 -50.5t116.5 34.5l38 -39q-9 -9 0 -18l89 -89q4 -4 9 -4t9 4l36 37q9 9 0 18zM332.5 74q-26.5 -26 -64 -26t-63.5 26t-26 63.5t26 64t63.5 26.5
t64 -26.5t26.5 -64t-26.5 -63.5zM490 485q20 -61 57 -93.5t75.5 -32.5t75.5 32.5t57 93.5q13 8 25 26t15 36q7 57 -24 57q-4 64 -40.5 104.5t-106.5 40.5t-108 -38.5t-43 -106.5q-31 0 -23 -57q2 -18 14 -36t26 -26zM815 349l-62 13l-131 -260l-130 260l-63 -13
q-38 -8 -71 -32q30 -15 52 -38q48 -48 57 -116t-25 -126l13 -12q17 1 29 -11l87 -87h391v248q0 63 -41.5 112t-105.5 62z" />
    <glyph glyph-name="uniE65B" unicode="&#xe65b;" 
d="M805 -77q-16 0 -35 11l-126 79h-159q-33 0 -58.5 18.5t-36.5 48.5l-79 -49q-40 -25 -68 -9q-22 13 -22 42v77h-28q-54 0 -92.5 38t-38.5 93v277q0 55 38.5 93.5t92.5 38.5h33q8 0 14.5 -6.5t6.5 -15t-6.5 -15t-14.5 -6.5h-33q-36 0 -62 -26t-26 -63v-277q0 -37 26 -63
t62 -26h70v-119q0 -4 1 -5q6 -4 25 8l187 116h234q36 0 62 26t26 63v277q0 37 -26 63t-62 26h-360q-9 0 -15 6.5t-6 15t6 15t15 6.5h360q54 0 92.5 -38.5t38.5 -93.5v-133h17q42 0 71.5 -30t29.5 -71v-201q0 -42 -29.5 -71.5t-71.5 -29.5h-13v-50q0 -24 -20 -35
q-9 -5 -20 -5zM427 103q4 -21 20.5 -34.5t37.5 -13.5h171l136 -85q6 -3 10 -4v89h56q25 0 42 17.5t17 41.5v201q0 24 -17 41t-42 17h-17v-101q0 -55 -38.5 -93t-92.5 -38h-222zM671 330h-22q-8 0 -14.5 6t-6.5 14.5t6.5 15t14.5 6.5h22q9 0 15.5 -6.5t6.5 -15t-6.5 -14.5
t-15.5 -6zM671 463h-149q-8 0 -14.5 6.5t-6.5 15t6.5 14.5t14.5 6h149q9 0 15.5 -6t6.5 -14.5t-6.5 -15t-15.5 -6.5z" />
    <glyph glyph-name="uniE65C" unicode="&#xe65c;" horiz-adv-x="1000" 
d="M746 336h-211v211q0 8 -6 14t-14 6t-14 -6t-6 -14v-211h-211q-8 0 -14 -5.5t-6 -14t6 -14.5t14 -6h211v-211q0 -8 6 -13.5t14 -5.5t14 5.5t6 13.5v211h211q8 0 14 6t6 14.5t-6 14t-14 5.5z" />
    <glyph glyph-name="uniE65D" unicode="&#xe65d;" 
d="M513 645q-94 0 -173.5 -46t-125.5 -125.5t-46 -173t46 -173t125.5 -126t173.5 -46.5t173.5 46.5t125.5 126t46 173t-46 173t-125.5 125.5t-173.5 46zM779 276q0 -8 -6 -13.5t-13 -5.5h-250v-19q0 -8 -5.5 -13.5t-13.5 -5.5t-14 5.5t-6 13.5v19h-19q-8 0 -13.5 5.5
t-5.5 13.5t5.5 13.5t13.5 5.5h19v250q0 8 6 13.5t14 5.5t13.5 -5.5t5.5 -13.5v-250h250q7 0 13 -5.5t6 -13.5zM513 748q-91 0 -174 -35.5t-142.5 -95.5t-95 -143t-35.5 -174t35.5 -173.5t95 -142.5t142.5 -95.5t174 -35.5t174 35.5t143 95.5t95 142.5t35 173.5t-35 174
t-95 143t-143 95.5t-174 35.5zM808 6q-58 -58 -133 -90q-77 -32 -162 -32t-162 32q-75 32 -133 90q-57 57 -89 132q-33 77 -33 162t33 162q32 76 89 133q58 58 133 89q78 33 162 33q85 0 162 -33q75 -31 133 -89q57 -58 89 -132q33 -78 33 -162.5t-33 -162.5
q-32 -75 -89 -132z" />
    <glyph glyph-name="uniE65E" unicode="&#xe65e;" 
d="M859 360q-9 -215 -216 -408q-68 -63 -126 -99q-6 4 -16 10.5t-40.5 29.5t-59 48t-64.5 65t-65 81t-54 94.5t-36 107.5q-17 54 -17 109q0 94 46.5 174.5t126.5 127t174.5 46.5t175 -46.5t127 -127t46.5 -174.5q0 -17 -2 -38zM512.5 620q-80.5 0 -137.5 -57t-57 -138
t57 -138t137.5 -57t137.5 57t57 138t-57 138t-137.5 57z" />
    <glyph glyph-name="uniE65F" unicode="&#xe65f;" 
d="M511 302zM63 302q0 91 35.5 173.5t95.5 142.5t143 95.5t174 35.5t173.5 -35.5t142.5 -95.5t95.5 -142.5t35.5 -173.5t-35.5 -174t-95.5 -142.5t-142.5 -95t-173.5 -35.5t-174 35.5t-143 95t-95.5 142.5t-35.5 174zM687 520l-228 -301l-136 135l-62 -62l208 -208l291 374z
" />
    <glyph glyph-name="uniE660" unicode="&#xe660;" 
d="M513 759q-91 0 -174.5 -36t-143.5 -97t-95.5 -145t-35.5 -176t35.5 -176t95.5 -145t143.5 -96.5t174.5 -35.5t174.5 35.5t143.5 96.5t95.5 145t35.5 176t-35.5 176t-95.5 145t-143.5 97t-174.5 36zM513 -112q-112 0 -207 56t-150.5 152t-55.5 209t55.5 209.5t150.5 152
t207 55.5t207 -55.5t150.5 -152t55.5 -209.5t-55.5 -209t-150.5 -152t-207 -56zM486 500l-26 26l-218 -221l218 -221l26 26l-175 177h435v36h-435z" />
    <glyph glyph-name="uniE661" unicode="&#xe661;" 
d="M511.5 -147q-90.5 0 -173.5 35.5t-143 95.5t-95.5 143t-35.5 174t35.5 173.5t95.5 142.5t143 95.5t173.5 35.5t173.5 -35.5t143 -95.5t95.5 -142.5t35.5 -173.5t-35.5 -174t-95.5 -143t-143 -95.5t-173.5 -35.5zM511.5 702q-108.5 0 -201 -53.5t-146.5 -146t-54 -201.5
t54 -201.5t146.5 -146t201 -53.5t201 53.5t146.5 146t54 201.5t-54 201.5t-146.5 146t-201 53.5zM527 73q-13 0 -20 11l-123 205q-7 12 0 24l123 205q5 8 14.5 10t17.5 -2.5t10.5 -14t-2.5 -17.5l-116 -193l116 -193q5 -9 2.5 -18t-10.5 -14q-6 -3 -12 -3z" />
    <glyph glyph-name="uniE662" unicode="&#xe662;" 
d="M512.5 -150q-91.5 0 -174.5 35.5t-143 95.5t-95.5 143t-35.5 174.5t35.5 174.5t95.5 143t143 95.5t174.5 35.5t174.5 -35.5t143 -95.5t95.5 -143t35.5 -174.5t-35.5 -174.5t-95.5 -143t-143 -95.5t-174.5 -35.5zM512.5 710q-111.5 0 -206.5 -55t-150 -150t-55 -206.5
t55 -206.5t150 -150t206.5 -55t206.5 55t150 150t55 206.5t-55 206.5t-150 150t-206.5 55zM792 361l-193 28l-87 175l-86 -175l-193 -28l140 -136l-33 -193l172 91l173 -91l-33 193zM512 166l-122 -64l24 136l-99 96l136 20l61 124l62 -124l136 -20l-99 -96l24 -136z
M512 166zM512.5 -150q-91.5 0 -174.5 35.5t-143 95.5t-95.5 143t-35.5 174.5t35.5 174.5t95.5 143t143 95.5t174.5 35.5t174.5 -35.5t143 -95.5t95.5 -143t35.5 -174.5t-35.5 -174.5t-95.5 -143t-143 -95.5t-174.5 -35.5zM512.5 710q-111.5 0 -206.5 -55t-150 -150
t-55 -206.5t55 -206.5t150 -150t206.5 -55t206.5 55t150 150t55 206.5t-55 206.5t-150 150t-206.5 55zM792 361l-193 28l-87 175l-86 -175l-193 -28l140 -136l-33 -193l172 91l173 -91l-33 193zM512 166l-122 -64l24 136l-99 96l136 20l61 124l62 -124l136 -20l-99 -96
l24 -136zM512 166z" />
    <glyph glyph-name="uniE663" unicode="&#xe663;" 
d="M954 -1q-1 1 -14.5 15t-19 18.5t-24.5 16.5t-36.5 18.5t-47 15t-65.5 13.5q-23 4 -43 9.5t-34 12t-24.5 14t-17 15t-10.5 15t-6 14t-3 11t-1 8.5v4l6 62q5 4 13.5 12.5t27.5 36t29 56.5q6 3 18.5 10.5t15.5 9.5l9 8q6 5 8.5 10.5t4.5 13.5q0 2 0.5 5.5t1.5 13.5t1 19.5
t-1 21t-3.5 19.5t-8 14t-13.5 6l-4 -1q-4 0 -10.5 1t-12.5 3t-9.5 6.5t-2.5 10.5q5 20 1 57q-1 8 0 20t0 26.5t-4 27.5t-12.5 23t-24.5 13q-20 4 -28 1t-15 -3q-7 1 -18 13.5t-25.5 24.5t-28.5 12l-53 -11q-8 0 -12 -1t-4.5 -2t-0.5 -2.5t1 -3t-0.5 -2.5t-5.5 -2l-5 -1h1
q5 0 -1 -1q-7 -2 -25 -6q-58 -11 -68 -106q-3 -32 -1 -72q2 -10 -3 -15.5t-12 -6.5l-6 -1q-9 1 -16.5 -9t-11 -25t-6 -29.5t-3.5 -24.5l-1 -11q1 -3 2 -11t1.5 -10.5t3.5 -8.5t7.5 -9t12.5 -8t19 -9q10 -29 30.5 -53.5t35.5 -34.5l15 -10q3 -42 4 -71q-1 0 -4 -7.5
t-11.5 -20.5t-23.5 -26t-46 -26t-72 -19q-35 -5 -64.5 -13t-47.5 -15t-35.5 -19t-24 -17.5t-18.5 -18t-14 -14.5q-27 -27 -23 -151h951l-9 77q-10 59 -25 74z" />
    <glyph glyph-name="uniE664" unicode="&#xe664;" 
d="M809 718h-591q-30 0 -51 -21.5t-21 -51.5v-730q0 -29 21 -50.5t51 -21.5h497l167 172v630q0 30 -21.5 51.5t-51.5 21.5zM711 -90v68q0 12 9 20.5t21 8.5h62zM835 60h-89q-34 0 -58 -24t-24 -57v-86h-442q-12 0 -20.5 8.5t-8.5 20.5v714q0 12 8.5 20.5t20.5 8.5h583
q12 0 21 -8.5t9 -20.5v-576zM266 487h383q10 0 17.5 7.5t7.5 17.5t-7.5 17.5t-17.5 7.5h-383q-10 0 -17 -7.5t-7 -17.5t7 -17.5t17 -7.5zM267 417q-11 0 -18 -7.5t-7 -18t7 -17.5t18 -7h326q10 0 17.5 7t7.5 17.5t-7.5 18t-17.5 7.5h-326zM715 296h-449q-10 0 -17 -7
t-7 -17.5t7 -18t17 -7.5h449q10 0 17 7.5t7.5 18t-7 17.5t-17.5 7z" />
    <glyph glyph-name="uniE665" unicode="&#xe665;" 
d="M746 -109q-7 3 -8.5 20.5t-0.5 40.5t-6 51t-25 47q0 1 -1 1q-2 2 -28.5 26t-41.5 32q-5 2 -6 8q0 12 -1 39q0 3 -2 6q-16 18 -26 45q-1 3 -5 5q-7 3 -11 6.5t-4.5 6t-1 7.5t-0.5 8q-7 48 7 51q3 1 5 3q5 5 4 13q-1 1 -1 2q-3 63 -2 67v12q0 10 1 15.5t6.5 12t14.5 8.5
q6 1 26 4q4 0 8.5 3t13.5 3q2 0 4 2l54 36q5 2 9.5 0t5.5 -7q1 -9 0 -18.5t-1 -17t3 -8.5q4 0 3 1t1 1t8 -1q8 -2 13 -6.5t7.5 -12.5t3 -13.5t1 -14t0.5 -10.5q1 -10 0 -32.5t-3 -31.5q-3 -10 8 -11h4q5 2 7 -4.5t2 -17.5t-0.5 -17.5t-0.5 -11.5l-1 -1q-1 -5 1 -9.5
t1.5 -7.5t-7.5 -8q-2 -2 -3 -4q-11 -29 -39 -50q-3 -2 -4 -6q-2 -23 -2 -28v-3q-1 -3 -1 -6.5t1.5 -8.5t5.5 -10t10.5 -10t18 -9t27.5 -6q18 -3 33 -7.5t23.5 -7.5t17.5 -9.5t12 -9t9.5 -9.5t7.5 -7.5t2 -0.5q38 -24 54 -116q1 -5 -2 -8t-7 -3q-104 -3 -200 -3h-2zM515 299
q-7 -20 -23 -38t-29 -26l-13 -8v-41v-4q-1 -4 -1 -9t1.5 -12t6.5 -13.5t12.5 -13t21.5 -11.5t33 -7q66 -10 112.5 -45.5t50.5 -60.5q2 -11 0 -117h-622v117q3 3 7.5 9.5t20 23t32.5 30t43.5 26.5t54.5 17t46.5 12.5t24.5 17.5t10 18t1.5 13.5t0.5 4.5l-3 49q-6 2 -15.5 7
t-29 22.5t-26.5 36.5q-5 2 -9 4t-7.5 4.5t-5.5 3.5t-4 4t-2.5 4t-1.5 4t-1.5 4t-1 5t-0.5 6l-1 40q3 27 15 27q4 0 8.5 1.5t12 7t5.5 12.5q-3 68 -1 89q3 25 15.5 57t35.5 37q15 3 29.5 13.5t30.5 10.5l105 78q6 0 6.5 -12t-3 -28.5t-7 -34t-5 -29t1.5 -13.5q5 0 15.5 -4
t24.5 -7q16 -3 19.5 -18.5t0.5 -36t-2 -25.5q12 -59 7 -81q-2 -7 2.5 -12t9.5 -6l4 -1q12 0 18 -17t6 -33v-17q-1 -5 -2.5 -8.5t-5.5 -7.5t-6.5 -5.5t-10.5 -6.5t-12 -7z" />
    <glyph glyph-name="uniE666" unicode="&#xe666;" 
d="M846 594h-20q-20 36 -46 59.5t-52 23.5h-303q-27 0 -53 -23.5t-46 -59.5h-93v27q0 12 -8.5 20t-20 8t-19.5 -8t-8 -20v-27q-46 0 -79 -33t-33 -79v-446q0 -46 33 -78.5t79 -32.5h669q46 0 78.5 32.5t32.5 78.5v446q0 46 -32.5 79t-78.5 33zM425 621h303q11 0 32 -27h-368
q21 27 33 27zM902 36q0 -23 -16.5 -39.5t-39.5 -16.5h-669q-23 0 -39.5 16.5t-16.5 39.5v307h161q-14 -39 -14 -78q0 -98 69.5 -167.5t167.5 -69.5t167.5 69.5t69.5 167.5q0 40 -13 78h173v-307zM324 265q0 75 53 128t128 53t128 -53t53 -128t-53 -128t-128 -53t-128 53
t-53 128zM902 398h-201q-33 48 -84.5 76t-111.5 28t-111.5 -28t-83.5 -76h-189v84q0 23 16.5 39.5t39.5 16.5h669q23 0 39.5 -16.5t16.5 -39.5v-84z" />
    <glyph glyph-name="uniE667" unicode="&#xe667;" 
d="M853 692h-683q-44 0 -75.5 -31.5t-31.5 -75.5v-570q0 -44 31.5 -75t75.5 -31h683q45 0 76 31t31 75v570q0 44 -31 75.5t-76 31.5zM170 646h683q25 0 43 -18t18 -43v-439q-3 0 -6 -1q-48 -20 -90 -30t-73.5 -13t-62.5 4t-50.5 14.5t-45 26t-38.5 30t-38 34.5
q-61 58 -98 79q-50 28 -112 28h-1q-48 0 -101 -16q-46 -15 -89 -39v322q0 25 18 43t43 18zM853 -45h-683q-25 0 -43 17.5t-18 42.5v212l1 1q6 4 18.5 11t46.5 21t67.5 21.5t76.5 4.5t78 -23q34 -19 92 -74q29 -28 46.5 -43t48 -34t61.5 -29q39 -11 82 -11q17 0 35 1
q68 7 152 41v-99q0 -25 -18 -42.5t-43 -17.5zM692.5 330q42.5 0 72 30t29.5 72t-29.5 72t-72 30t-72 -30t-29.5 -72t29.5 -72t72 -30zM692.5 503q29.5 0 50.5 -20.5t21 -50t-21 -50.5t-50.5 -21t-50.5 21t-21 50.5t21 50t50.5 20.5zM553 82q-17 14 -48 44q-60 57 -96 77
q-49 27 -109 28h-1q-47 0 -99 -17q-7 -2 -5 -9.5t9 -4.5q115 36 197 -10q34 -19 93 -75q32 -30 49 -45q2 -1 5 -1q4 0 6 2q5 6 -1 11zM156 198q-3 -1 -6 -3q-7 -3 -3 -10q2 -4 7 -4h3q3 2 6 3q7 3 3.5 10t-10.5 4z" />
    <glyph glyph-name="uniE668" unicode="&#xe668;" 
d="M192 -78q-9 0 -16 6q-13 11 -8 27l45 147q-49 43 -77 96q-33 64 -33 134q0 69 33 134q31 62 88 110t130 74q76 28 158 28t158 -28q73 -26 130 -74t88 -110q33 -65 33 -134.5t-33 -132.5q-31 -60 -89 -107q-119 -96 -287 -96q-73 0 -141 20l-167 -91q-5 -3 -12 -3z
M512 627q-73 0 -141 -25q-64 -23 -114 -65q-49 -42 -76 -95t-27 -110q0 -117 104 -201q14 -11 9 -27l-32 -104l121 66q10 6 20 2q65 -21 136 -21q97 0 179.5 38t130.5 104t48 143q0 57 -27 110t-76 95q-50 42 -114 65q-68 25 -141 25zM705 392h-386q-11 0 -18.5 7.5t-7.5 18
t7.5 18t18.5 7.5h386q11 0 18.5 -7.5t7.5 -18t-7.5 -18t-18.5 -7.5zM647 209h-270q-10 0 -17.5 7.5t-7.5 18t7.5 18t17.5 7.5h270q10 0 17.5 -7.5t7.5 -18t-7.5 -18t-17.5 -7.5z" />
    <glyph glyph-name="uniE669" unicode="&#xe669;" 
d="M919 259h-814v82h814v-82zM888 725h-278v-82h245v-245h82v278q0 20 -14.5 34.5t-34.5 14.5zM855 -43h-251v-82h283q21 0 35.5 14.5t14.5 34.5v260h-82v-227zM169 643h258v82h-291q-20 0 -34.5 -14.5t-14.5 -34.5v-278h82v245zM169 184h-82v-260q0 -20 14.5 -34.5
t34.5 -14.5h253v82h-220v227z" />
    <glyph glyph-name="uniE66A" unicode="&#xe66a;" 
d="M512 812q-104 0 -199 -40.5t-163.5 -109t-109 -163.5t-40.5 -199t40.5 -199t109 -163.5t163.5 -109t199 -40.5t199 40.5t163.5 109t109 163.5t40.5 199t-40.5 199t-109 163.5t-163.5 109t-199 40.5zM794 140q-10 -8 -25.5 0.5t-32.5 31.5q-14 -38 -36 -71q51 -18 51 -47
q0 -25 -39 -43t-94 -18q-66 0 -106 24q-39 -24 -106 -24q-55 0 -93.5 18t-38.5 43q0 29 50 47q-21 32 -36 71q-16 -23 -31.5 -31.5t-25.5 -0.5q-14 13 -9.5 52.5t24.5 81.5q9 20 20 35q3 124 74.5 211t171.5 87q101 0 172.5 -87t74.5 -211q10 -15 19 -35q20 -42 24.5 -81.5
t-8.5 -52.5z" />
    <glyph glyph-name="uniE66B" unicode="&#xe66b;" 
d="M659 368q-92 14 -164.5 13t-117.5 -9l-45 -8q24 1 56.5 -0.5t61 -4t53.5 -5.5t40.5 -5t14.5 -2l-191 -140q135 -21 298 3l-2 9q-34 2 -81 6t-77 7l-29 4zM512 748q-91 0 -174 -35.5t-143 -95.5t-95.5 -143t-35.5 -174t35.5 -173.5t95.5 -142.5t143 -95.5t174 -35.5
t173.5 35.5t142.5 95.5t95.5 142.5t35.5 173.5t-35.5 174t-95.5 143t-142.5 95.5t-173.5 35.5zM663 219q27 -2 45 -2q-16 -3 -43 -7l29 -171l-185 97l-186 -97l35 207l-150 146l208 30l93 188l92 -188l208 -30l-150 -146zM802 380z" />
    <glyph glyph-name="uniE66C" unicode="&#xe66c;" horiz-adv-x="1026" 
d="M699 409h-355l234 -40l-252 -205h382l-226 49zM514 812q-104 0 -199 -40.5t-163.5 -109t-109 -163.5t-40.5 -199t40.5 -199t109 -163.5t163.5 -109t199 -40.5t199 40.5t163.5 109t109 163.5t40.5 199t-40.5 199t-109 163.5t-163.5 109t-199 40.5zM847 392l-130 -111
l43 -277q-7 -7 -9 -8t-9 -1l-226 139l-226 -139q-13 0 -16 1t-3 8l31 277l-137 122l-47 33h-13v2l13 -2h122h147l35 62l86 183h18l95 -183l35 -62h147h87q3 0 6 1q2 1 2.5 0.5t0.5 -5.5z" />
    <glyph glyph-name="uniE66D" unicode="&#xe66d;" 
d="M592 194q-14 5 -26 9q-3 1 -6.5 3t-8.5 8.5t-8 15t-2.5 23.5t6.5 34q44 45 72 111.5t28 133.5q0 103 -59 160.5t-146 57.5t-145.5 -57.5t-58.5 -160.5q0 -68 28 -134t72 -112q7 -22 7 -37t-8 -25.5t-14 -14.5t-11 -6q-62 -23 -116.5 -52t-94.5 -67t-40 -74v-28
q0 -120 351 -125q-4 21 1 40l43 147q7 24 26 41zM813 158l-34 34h1l-45 45l-206 -204q-5 -3 -6 -8l-43 -147q-3 -10 4 -18q6 -6 13 -6q3 0 5 1l147 43q5 2 9 6l205 204zM549 -93l-18 17l24 79l9 -10l49 -4l3 -47l12 -12zM753 257l129 -128l30 27l-129 129zM945 259l-61 62
q-13 13 -31 13t-31 -13l-19 -19l124 -123l19 19q12 13 12 30.5t-13 30.5z" />
    <glyph glyph-name="uniE66E" unicode="&#xe66e;" 
d="M512 748q-91 0 -174 -35.5t-143 -95.5t-95.5 -143t-35.5 -174t35.5 -174t95.5 -143t143 -95.5t174 -35.5t174 35.5t143 95.5t95.5 143t35.5 174t-35.5 174t-95.5 143t-143 95.5t-174 35.5zM512 615q23 0 39.5 -16.5t16.5 -39.5l-20 -373q-2 -13 -12 -22.5t-24 -9.5
t-24 9.5t-12 22.5v3v1v1l-20 368q0 23 16.5 39.5t39.5 16.5zM512 -15q-23 0 -39.5 16.5t-16.5 39.5t16.5 40t39.5 17t39.5 -17t16.5 -40t-16.5 -39.5t-39.5 -16.5z" />
    <glyph glyph-name="uniE66F" unicode="&#xe66f;" 
d="M867 25q5 -16 8 -39q2 -25 2 -47q0 -24 -3.5 -45t-10.5 -33q-5 -7 -29 -15t-58 -15.5t-78 -14.5q-35 -5 -85 -11q-41 -6 -83 -9q-38 -3 -69 -3q-44 0 -106 7q-64 7 -118 16q-59 9 -102 18q-43 10 -52 17q-12 8 -17 50q-6 41 5 106q6 37 30 57q24 19 57 30q32 11 68 20
q35 10 62 27q21 13 33 25q11 12 16 24q4 12 4 25.5t-1 28.5q-2 24 -15 37q-15 14 -31 28q-9 7 -15 20q-5 11 -11 25q-5 17 -10 32q-7 2 -14 7q-6 5 -13.5 14t-11.5 26q-5 18 -3.5 31.5t5.5 23.5q4 11 12 21q-1 38 4 77q4 32 15 69q10 37 30 66q20 27 44 45q23 18 48 28
q24 10 49 14t48 4q29 0 56 -7t50 -18q24 -11 42 -25t29 -28q26 -32 38 -71q13 -40 18 -74q6 -41 5 -81q7 -4 11 -12q4 -7 7 -18q2 -12 0 -27q-3 -22 -9 -34q-7 -13 -15 -20q-10 -8 -19 -11q-4 -17 -9 -32q-7 -15 -12 -26q-6 -12 -14.5 -19.5t-17.5 -13.5q-8 -5 -14 -11
t-10 -15t-7 -21q-2 -14 -2 -31q2 -16 9 -31q7 -16 23 -30t43 -26q26 -9 55.5 -17t57.5 -18q28 -11 50 -27q22 -17 31 -43zM478 -141q5 0 16 7q11 6 20 15q11 10 18 18q8 10 8 15t-3 21q-7 32 -7 33q-6 25 -8 36q-5 19 -8 29q11 9 18 18q7 10 7 20q0 8 -6 16q-5 9 -12 15
q-6 5 -18 14h-50q-11 -7 -18 -14q-6 -6 -11 -14t-5 -16q0 -6 8 -17q8 -10 19 -19q-5 -13 -8 -26q-6 -17 -10 -36l-8 -36q-4 -16 -4 -24q0 -5 8 -14.5t18.5 -18.5t20.5 -15q10 -7 15 -7z" />
    <glyph glyph-name="uniE670" unicode="&#xe670;" 
d="M867 185q10 10 10 24.5t-10 25t-24.5 10.5t-24.5 -11l-1 1l-264 -264q-61 -49 -141 -45t-137 61t-61 137t45 141l384 395q39 25 86 20t81 -38.5t38.5 -80.5t-20.5 -86l-344 -344q-3 -5 -6 -8q-14 -14 -33.5 -14t-33 14t-13.5 33.5t13 32.5q4 4 8 7l271 272l3 3
q10 11 10 25.5t-10 24.5t-24.5 10t-25.5 -10l-1 -1v0l-273 -274q-4 -3 -8 -7q-34 -34 -34 -83t34.5 -83.5t83 -34.5t83.5 35l7 7l343 345q46 59 41 136t-59 131t-131 59t-136 -41l-384 -394q-70 -83 -66 -192.5t82 -186.5q76 -77 184.5 -82t190.5 63h1z" />
    <glyph glyph-name="uniE671" unicode="&#xe671;" horiz-adv-x="1048" 
d="M762 193q-28 0 -74 -24t-69 -24t-87 54.5t-119.5 119t-55.5 88.5q0 26 24 65t24 66q0 20 -37.5 86.5t-87.5 127t-78 60.5q-30 0 -77.5 -29.5t-86 -78.5t-38.5 -94q0 -69 40.5 -159t106.5 -180t154.5 -178t180.5 -155t188.5 -108.5t174.5 -41.5q45 0 92 27.5t79 75
t32 99.5q0 18 -60 68t-130.5 92.5t-95.5 42.5z" />
    <glyph glyph-name="uniE672" unicode="&#xe672;" 
d="M746 512h-468q-88 0 -150 -62t-62 -150t62 -150t150 -62h468q88 0 150 62t62 150t-62 150t-150 62zM368 208h-26l-97 145v-145h-23v184h25l97 -145v145h24v-184zM547 208h-138v184h134v-21h-109v-57h102v-22h-102v-63h113v-21zM751 208h-23l-39 140q-5 18 -6 22
q-3 -13 -5 -22l-40 -140h-25l-49 184h25l29 -121q4 -19 7 -38q7 30 9 35l35 124h29l27 -93q10 -35 14 -66q4 18 9 41l30 118h24z" />
    <glyph glyph-name="uniE673" unicode="&#xe673;" 
d="M662 454l-134 -141l-131 141l-29 -16l144 -154h-128v-32h128v-64h-128v-32h128v-96h32v96h128v32h-128v64h128v32l-128 -3l144 157zM528 604q-139 0 -237.5 -98.5t-98.5 -237.5t98.5 -237.5t237.5 -98.5t237.5 98.5t98.5 237.5t-98.5 237.5t-237.5 98.5zM528 -36
q-125 0 -214.5 89.5t-89.5 214.5t89.5 214.5t214.5 89.5t214.5 -89.5t89.5 -214.5t-88.5 -214.5t-215.5 -89.5z" />
    <glyph glyph-name="uniE674" unicode="&#xe674;" horiz-adv-x="1025" 
d="M512 896q-139 0 -257 -68.5t-186.5 -186.5t-68.5 -257t68.5 -257t186.5 -186.5t257 -68.5t257 68.5t186.5 186.5t68.5 257t-68.5 257t-186.5 186.5t-257 68.5zM214 100v32q1 27 6 45q3 12 12 21q20 20 28 25q24 17 58 24q10 3 29 6.5t23 4.5q35 7 57 22q14 11 23 26
q6 11 5 25q-1 7 -2 28q0 3 -3 5q-34 23 -47 57q-1 2 -3 3t-6.5 3.5t-7.5 3.5q-9 6 -11 17q-2 12 2 37q2 16 7 25q3 5 6 8q1 1 6 3q1 0 3.5 0.5t3.5 0.5q7 3 7 11v37q2 31 12 52q9 18 24 23q4 2 12 3.5t9 1.5q4 1 8 3q2 1 1 3q-1 3 3 4q20 3 23 4q9 1 12 2q11 3 21 -4
q3 -2 12 -11l6 -6q4 -4 7 -6q5 -5 11 -3q8 4 22 1q20 -5 23 -28q1 -3 2 -24v-13q0 -10 1 -15q0 -13 -2 -24q-2 -9 7 -11q7 -2 15 -2q12 -1 15 -12t3 -20q1 -13 -1 -30q-2 -12 -12 -19q-4 -2 -11 -6.5t-10 -6.5q-2 -2 -3 -4q-13 -35 -42 -62q-1 -1 -2 -4q-3 -27 -3 -35
q-1 -20 15 -36q11 -12 32 -20q15 -6 49 -11q45 -8 75 -23q19 -9 33 -24l3 -3q3 -3 5 -4q11 -10 16 -28q6 -22 9 -53q0 -1 2 -19h-598z" />
    <glyph glyph-name="uniE675" unicode="&#xe675;" horiz-adv-x="1025" 
d="M512 896q-139 0 -257 -68.5t-186.5 -186.5t-68.5 -257t68.5 -257t186.5 -186.5t257 -68.5t257 68.5t186.5 186.5t68.5 257t-68.5 257t-186.5 186.5t-257 68.5zM648 135v-2h-454v4v78q0 3 2 6q31 42 74 62q18 9 44 13q25 5 39 14q17 12 17 31q-1 22 -2 36q0 3 -3 4
q-24 12 -38 28q-2 3 -5.5 9t-4.5 7q-2 4 -3 4q-23 8 -23 34l2 30q0 4 3 7q1 3 5 5q2 0 7 2t8 3q5 3 5 11q-1 49 0 62q1 33 19 58q7 11 18 13q12 3 22 10q8 7 19 8q2 0 5 2q16 12 71 52q7 6 7 -3q0 -13 -2 -24q0 -2 -8 -46v-4q-1 -5 4 -6q11 -3 29 -9q11 -3 11 -14
q1 -14 0 -27q-2 -10 1 -28q1 -10 4 -39v-3q0 -1 -0.5 -3t-0.5 -3q0 -8 7 -12q3 -1 4 -1q10 -1 14 -12q5 -16 4 -37q0 -9 -9 -15q-2 -1 -7.5 -4.5t-7.5 -5.5q-2 -1 -3 -3q-9 -23 -36 -43q-4 -3 -6 -4q-5 -2 -5 -10q0 -13 -1 -29q-1 -23 20 -35q12 -7 34 -10q54 -9 92 -41
q19 -16 26 -31q2 -5 2 -10v-79zM837 133q-10 0 -71 -1v-1h-70q-8 0 -10 8q-1 5 -1 11q0 3 -0.5 18.5t-0.5 23.5q-2 34 -20 54q-3 3 -14 12l-30 27q-3 2 -9 5q-5 2 -5 8v25q-1 4 -3 8q-11 14 -17 28q-2 6 -7 8q-9 4 -10 14q-2 29 -1 34q2 7 7.5 9t4.5 10q-1 42 -2 59
q0 6 2 15t13 12q3 0 9 1t9 2q1 0 8 2l3 1q2 2 3 2q5 0 12 4q6 4 17.5 12t15.5 10q5 3 8 2q4 -2 4 -8v-11v-10v-6q1 -4 4 -2q1 1 7 0q12 -3 14.5 -13.5t3.5 -21.5q1 -27 -2 -53q-2 -9 8 -8q6 0 6 -5v-16v-16q0 -7 1 -9q1 -5 -3 -9q-4 -3 -5 -6q-8 -18 -25 -32q-6 -5 -6 -11
q0 -7 -2 -20q-2 -17 17 -27q10 -6 31 -9q33 -6 50 -16q6 -4 8 -5q3 -3 13 -12t16 -16t10 -15q12 -26 17 -57q2 -8 -8 -9z" />
    <glyph glyph-name="uniE676" unicode="&#xe676;" 
d="M142.5 -97q-10.5 0 -18 7.5t-7.5 18t7 18.5l737 736q8 8 18.5 8t18 -7.5t7.5 -18t-8 -18.5l-737 -737q-7 -7 -17.5 -7zM879 -97q-11 0 -18 7l-737 737q-8 8 -8 18.5t7.5 18t18 7.5t18.5 -8l737 -736q8 -8 8 -18.5t-7.5 -18t-18.5 -7.5z" />
    <glyph glyph-name="uniE677" unicode="&#xe677;" 
d="M969 581q-8 8 -19.5 8t-19.5 -8l-508 -508l-324 324q-8 8 -19 8t-19 -8t-8 -19t8 -19l343 -344q8 -8 19 -8q6 0 11 2t9 6l527 527q8 8 8 19.5t-8 19.5z" />
    <glyph glyph-name="uniE678" unicode="&#xe678;" horiz-adv-x="1025" 
d="M999 268l-483 483q-26 25 -69 43t-79 18h-282q-35 0 -60 -26q-26 -25 -26 -60v-282q0 -35 18 -78.5t44 -68.5l483 -484q25 -25 61 -25q35 0 61 25l332 333q25 25 25 60q0 36 -25 62zM277.5 534.5q-25.5 -25.5 -61.5 -25.5t-61 25.5t-25 61.5t25 61t61 25t61.5 -25.5
t25.5 -61t-25.5 -61z" />
    <glyph glyph-name="uniE679" unicode="&#xe679;" 
d="M2 766l338 -978l226 243l81 -54v132l375 179zM109 678l831 -390l-309 -148zM612 42l-22 15l22 24v-39zM601 120l-247 -266l-279 809zM601 120z" />
    <glyph glyph-name="uniE67A" unicode="&#xe67a;" horiz-adv-x="1025" 
d="M512 896q-139 0 -257 -68.5t-186.5 -186.5t-68.5 -257t68.5 -257t186.5 -186.5t257 -68.5t257 68.5t186.5 186.5t68.5 257t-68.5 257t-186.5 186.5t-257 68.5zM443 117v122q6 -2 31 -10t40 -11v-1l-1 -1l-1 -1l-1 -1v-1l-1 -1l-1 -1v-1l-1 -1l-1 -1l-1 -1v-1l-1 -1l-1 -1
v-1l-1 -1l-1 -1l-1 -1v-1l-1 -1l-1 -1v-1l-1 -1l-1 -1v-1l-1 -1l-1 -1l-1 -1v-1l-1 -1l-1 -1v-1l-1 -1l-1 -1l-1 -1v-1l-1 -1l-1 -1v-1l-1 -1l-1 -1l-1 -1v-1l-1 -1l-1 -1v-1l-1 -1l-1 -1v-1l-1 -1l-1 -1l-1 -1v-1l-1 -1l-1 -1v-1l-1 -1l-1 -1l-1 -1v-1l-1 -1l-1 -2l-1 -1
l-1 -1l-1 -1v-1l-1 -1l-1 -1v-1l-1 -1l-1 -1v-1l-1 -1l-1 -1l-1 -1v-1l-1 -1l-1 -1v-1l-1 -1l-1 -1l-1 -1v-1l-1 -1l-1 -1v-1l-1 -1l-1 -1v-1l-1 -1l-1 -1l-1 -1v-1l-1 -1l-1 -1v-1l-1 -1l-1 -1zM668 205h-1l-1 1h-1h-1l-1 1h-1h-1l-1 1h-1h-1l-1 1h-1h-1h-1l-1 1h-1h-1
l-1 1h-1h-1l-1 1h-1h-1l-1 1h-1h-1l-1 1h-1h-1l-1 1h-1h-1l-1 1h-1h-1h-1l-1 1h-1h-1l-1 1h-1h-1l-1 1h-1h-1l-1 1h-1h-1l-1 1h-1h-1l-1 1h-1h-1l-1 1h-1h-1h-1l-1 1h-1h-1l-1 1h-1h-1l-1 1h-1h-1l-1 1h-1h-1l-1 1h-1h-1l-1 1h-1h-1l-1 1h-1h-1l-1 1h-1h-1h-1l-1 1h-1h-1
l-1 1h-1h-1l-1 1h-1h-1l-1 1h-1h-1l-1 1h-1h-1l-1 1h-1h-1l-1 1h-1h-1h-1l-1 1h-1h-1l-1 1h-1h-1l-1 1h-1h-1l-1 1h-1h-1l-1 1h-1h-1l-1 1h-1h-1l-1 1h-1h-1l-1 1h-1h-1l-1 1h-1h-1h-1l-1 1h-1h-1l-1 1h-1h-1l-1 1h-1h-1l-1 1h-1h-1l-1 1h-1h-1l-1 1h-1h-1l-1 1h-1h-1h-1
l-1 1h-1h-1l-1 1h-1h-1l-1 1h-1h-1l-1 1h-1h-1l-1 1h-1h-1l-1 1h-1h-1l-1 1h-1h-1h-1l-1 1h-1h-1l-1 1h-1h-1l-1 1h-1h-1l-1 1h-1h-1l-1 1h-1h-1l-1 1h-1h-1l-1 1h-1h-1h-1l-1 1h-1h-1l-1 1h-1h-1l-1 1h-1h-1l-1 1h-1h-1l-1 1h-1h-1l-1 1h-1h-1l-2 1l1 1l1 1l1 1l1 1l1 1v1
l1 1l1 1l1 1l1 1v1l1 1l1 1l1 1l1 1l1 1v1l1 1l1 1l1 1l1 1l1 1v1l1 1l1 1l1 1l1 1v1l1 1l1 1l1 1l1 1l1 1v1l1 1l1 1l1 1l1 1v1l1 1l1 1l1 1l1 1l1 1v1l1 1l1 1l1 1l1 1l1 1v1l1 1l1 1l1 1l1 1v1l1 1l1 1l1 1l1 1l1 1v1l1 1l1 1l1 1l1 1v1l1 1l1 1l1 1l1 1l1 1v1l1 1l1 1
l1 1l1 1l1 1v1l1 1l1 1l1 1l1 1v1l1 1l1 1l1 1l1 1l1 1v1l1 1l1 1l1 1l1 1v1l1 1l1 1l1 1l1 1l1 1v1l1 1l1 1l1 1l1 1v1l1 1l1 1l1 1l1 1l1 1v1l1 1l1 1l1 1l1 1l1 1v1l1 1l1 1l1 2l1 1l1 1l1 1l1 1l1 1v1l1 1l1 1l1 1l1 1v1l1 1l1 1l1 1l1 1l1 1v1l1 1l1 1l1 1l1 1l1 1v1
l1 1l1 1l1 1l1 1v1l1 1l1 1l1 1l1 1l1 1v1l1 1l1 1l1 1l1 1v1l1 1l1 1l1 1l1 1l1 1v1l1 1l1 1l1 1l1 1v1l1 1l1 1l1 1l1 1l1 1v1l1 1l1 1l1 1l1 1l1 1v1l1 1l1 1l1 1l1 1v1l1 1l1 1l1 1l1 1l1 1v1l1 1l1 1l1 1l1 1v1l1 1l1 1l1 1l1 1l1 1v1l1 1l1 1l1 1l1 1v1l1 1l1 1l1 1
l1 1l1 1v1l1 1l1 1l1 1l1 1l1 1v1l1 1l1 1l1 1l1 1v1l1 1l1 1l1 1l1 1l1 1l1 1l-1 1l-2 -2q-161 -141 -244 -214q-2 -2 -6 -1q-41 13 -197 61l-3 2h1l1 1h1l1 1h1l1 1h1l1 1h1l1 1h1l1 1h1l1 1h1l1 1h1l1 1h1l1 1h1l1 1h1l1 1h1l1 1h1l1 1h1l1 1h1l1 1h1l1 1h1l1 1h1l1 1h1
l1 1h1l1 1h1l1 1h1l1 1h1l1 1h1l1 1h1l1 1h1l1 1h1l1 1h1l1 1h1l1 1h1l1 1h1l1 1h1l1 1h1l1 1h1l1 1h1l1 1h1l1 1h1l1 1h1l1 1h1l1 1h1l1 1h1l1 1h1l1 1h1l1 1h1l1 1h1l1 1h1l1 1h1l1 1h1l1 1h1l1 1h1l1 1h1l1 1h1l1 1h1l1 1h1l1 1h1l1 1h1l1 1h1l1 1h1l1 1h1l1 1h1l1 1h1
l1 1h1l1 1h1l1 1h1l1 1h1l1 1h1l1 1h1l1 1h1l1 1h1l1 1h1l1 1h1l1 1h1l1 1h1l1 1h1l1 1h1l1 1h1l1 1h1l1 1h1l1 1h1l1 1h1l1 1h1l1 1h1l1 1h1l1 1h1l1 1h1l1 1h1l1 1h1l1 1h1l1 1h1l1 1h1l1 1h1l1 1h1l1 1h1l1 1h1l1 1h1l1 1h1l1 1h1l1 1h1l1 1h1l1 1h1l1 1h1l1 1h1l1 1h1
l1 1h1l1 1h1l1 1h1l1 1h1l1 1h1l1 1h1l1 1h1l1 1h1l1 1h1l1 1h1l1 1l1 1h1l1 1h1l1 1h1l1 1h1l1 1h1l1 1h1l1 1h1l1 1h1l1 1h1l1 1h1l1 1h1l1 1h1l1 1h1l1 1h1l1 1h1l1 1h1l1 1h1l1 1h1l1 1h1l1 1h1l1 1h1l1 1h1l1 1h1l1 1h1l1 1h1l1 1h1l1 1h1l1 1h1l1 1h1l1 1h1l1 1h1l1 1
h1l1 1h1l1 1h1l1 1h1l1 1h1l1 1h1l1 1h1l1 1h1l1 1h1l1 1h1l1 1h1l1 1h1l1 1h1l1 1h1l1 1h1l1 1h1l1 1h1l1 1h1l1 1h1l1 1h1l1 1h1l1 1h1l1 1h1l1 1h1l1 1h1l1 1h1l1 1h1l1 1h1l1 1h1l1 1h1l1 1h1l1 1h1l1 1h1l1 1h1l1 1h1l1 1h1l1 1h1l1 1h1l1 1h1l1 1h1l1 1h1l1 1h1l1 1h1
l1 1h1l1 1h1l1 1h1l1 1h1l1 1h1l1 1h1l1 1h1l1 1h1l1 1h1l1 1h1l1 1h1l1 1h1l1 1h1l1 1h1l1 1h1l1 1h1l1 1h1l1 1h1l1 1h1l1 1h1l1 1h1l1 1h1l1 1h1l1 1h1l1 1h1l1 1h1l1 1h1l1 1h1l1 1h1l1 1h1l1 1h1l1 1h1l1 1h1l1 1h1l1 1h1l1 1h1l1 1h1l1 1h1l1 1h1l1 1h1l1 1h1l1 1h1
l1 1h1l1 1h1l1 1h1l1 1h1l1 1h1l1 1h1l1 1h1l1 1h1l1 1h1l1 1h1l1 1h1l1 1h1l1 1h1l1 1h1l1 1h1l1 1h1l1 1h1l1 1h1l1 1h1l1 1h1l1 1h1l1 1h1l1 1h1l1 1h1l1 1h1l1 1h1l1 1h1l1 1h1l1 1h1l1 1h1l1 1h1l1 1h1l1 1h1l1 1h1l1 1h1l1 1h1l1 1h1l1 1h1l1 1h1l1 1h1l1 1h1l1 1h1
l1 1h1l1 1h1l1 1h1l1 1h1l1 1h1l1 1h1l1 1h1l1 1h1l1 1h1l1 1h1l1 1h1l1 1h1l1 1h1l1 1h1l1 1h1l1 1h1l1 1h1l1 1h1l1 1h1l1 1h1l1 1h1l1 1h1l1 1h1l2 1l-1 -1v-1v-1v-1l-1 -1v-1v-1v-1l-1 -1v-1v-1v-1l-1 -1v-1v-1v-1l-1 -1v-1v-1v-1l-1 -1v-1v-1v-1l-1 -1v-1v-1l-1 -1v-1
v-1v-1l-1 -1v-1v-1v-1l-1 -1v-1v-1v-1l-1 -1v-1v-1v-1l-1 -1v-1v-1v-1l-1 -1v-1v-1v-1l-1 -1v-1v-1v-1l-1 -1v-1v-1v-1l-1 -1v-1v-1v-1l-1 -1v-1v-1v-1l-1 -1v-1v-1v-1l-1 -1v-1v-1v-1l-1 -1v-1v-1v-1l-1 -1v-1v-1v-1l-1 -1v-1v-1v-1l-1 -1v-1v-1v-1l-1 -1v-1v-1v-1l-1 -1
v-1v-1v-1l-1 -1v-1v-1v-1l-1 -1v-1v-1v-1l-1 -1v-1v-1v-1l-1 -1v-1v-1v-1l-1 -1v-1v-1v-1l-1 -1v-1v-1v-1l-1 -1v-1v-1v-1l-1 -1v-1v-1v-1l-1 -1v-1v-1v-1l-1 -1v-1v-1l-1 -1v-1v-1v-1l-1 -1v-1v-1v-1l-1 -1v-1v-1v-1l-1 -1v-1v-1v-1l-1 -1v-1v-1v-1l-1 -1v-1v-1v-1l-1 -1
v-1v-1v-1l-1 -1v-1v-1v-1l-1 -1v-1v-1v-1l-1 -1v-1v-1v-1l-1 -1v-1v-1v-1l-1 -1v-1v-1v-1l-1 -1v-1v-1v-1l-1 -1v-1v-1v-1l-1 -1v-1v-1v-1l-1 -1v-1v-1v-1l-1 -1v-1v-1v-1l-1 -1v-1v-1v-1l-1 -1v-1v-1v-1l-1 -1v-1v-1v-1l-1 -1v-1v-1v-1l-1 -1v-1v-1v-1l-1 -1v-1v-1v-1
l-1 -1v-1v-1v-1l-1 -1v-1v-1v-1l-1 -1v-1v-1v-1l-1 -1v-1v-1v-1l-1 -1v-1v-1v-1l-1 -1v-1v-1v-1l-1 -1v-1v-1v-1l-1 -1v-1v-1v-1l-1 -1v-1v-1v-1l-1 -1v-1v-1l-1 -1v-1v-1v-1l-1 -1v-1v-1v-1l-1 -1v-1v-1v-1l-1 -1v-1v-1v-1l-1 -1v-1v-1v-1l-1 -1v-1v-1v-1l-1 -1v-1v-1v-1
l-1 -1v-1v-1v-1l-1 -1v-1v-1v-1l-1 -1v-1v-1v-1l-1 -1v-1v-1v-1l-1 -1v-1v-1v-1l-1 -1v-1v-1v-1l-1 -1v-1v-1v-1l-1 -1v-1v-1v-1l-1 -1v-1v-1v-1l-1 -1v-1v-1v-1l-1 -1v-1v-1v-1l-1 -1v-1v-1v-1l-1 -1v-1v-1v-1l-1 -1v-1v-1v-1l-1 -1v-1v-1v-1l-1 -1v-1v-1v-1l-1 -1v-1v-1
v-1l-1 -1v-1v-1v-1l-1 -1v-1v-1v-1l-1 -1v-1v-1v-1l-1 -1v-1v-1v-1l-1 -1v-1v-1v-1l-1 -1v-1v-1v-1l-1 -1v-1v-1v-1l-1 -1v-1v-1v-1l-1 -1v-1v-1v-1l-1 -1v-1v-1v-1l-1 -1v-1v-1l-1 -1v-1v-1v-1l-1 -1v-1v-1v-1l-1 -1v-1v-1v-1l-1 -1v-1v-1v-1l-1 -1v-1v-1v-1l-1 -1v-1v-1
v-1l-1 -1v-1v-1v-1l-1 -1v-1v-1v-1l-1 -1v-1v-1v-1l-1 -1v-2z" />
    <glyph glyph-name="uniE67B" unicode="&#xe67b;" 
d="M62 356q0 -35 24.5 -59.5t59.5 -24.5t60 24.5t25 59.5t-25 60t-60 25t-59.5 -25t-24.5 -60zM428 356q0 -35 25 -59.5t60 -24.5t59.5 24.5t24.5 59.5t-24.5 60t-59.5 25t-60 -25t-25 -60zM794 356q0 -35 24.5 -59.5t59.5 -24.5t60 24.5t25 59.5t-25 60t-60 25t-59.5 -25
t-24.5 -60z" />
    <glyph glyph-name="uniE67C" unicode="&#xe67c;" 
d="M512 811q-104 0 -198.5 -40.5t-163 -109t-109 -163t-40.5 -199t40.5 -199t109 -163t163 -109t198.5 -40.5t199 40.5t163.5 109t109 163t40.5 199t-40.5 199t-109 163t-163.5 109t-199 40.5zM675 274l-220 -248q-9 -11 -23 -11t-23.5 11t-9.5 26.5t9 26.5l196 221
l-196 221q-9 11 -9 26.5t9.5 26.5t23.5 11t23 -11l220 -247q9 -11 9 -26.5t-9 -26.5z" />
    <glyph glyph-name="uniE67D" unicode="&#xe67d;" 
d="M622 -47h-12l-227 1q-5 0 -9 1q-29 8 -42 37q-15 34 6 79q2 6 7 12.5t22.5 17.5t40.5 17q-47 117 18 182q39 35 87 35q36 0 65 -23q16 -13 28 -31q6 -9 13 -27q9 -22 8 -62t-12 -73q66 -19 79 -65q1 -5 3 -13.5t0 -27t-12 -32.5q-20 -28 -63 -28zM391 18l220 -1h3
q18 -2 20 2q2 5 -2 16q-2 10 -25 18.5t-47 10.5q-10 1 -18 7.5t-11 16.5q-5 24 15 35q10 9 15 48.5t-2 59.5q-4 11 -6 14q-7 10 -15 17q-12 9 -25 9q-23 0 -43 -18q-13 -12 -16 -32t0.5 -37.5t11 -36t12 -26.5t6.5 -11q10 -16 1.5 -32t-27.5 -17q-48 -2 -63 -18
q-7 -18 -5 -24zM914 649h-289l-1 36q-1 51 -9.5 75t-33.5 23l-134 -2q-25 0 -33 -24t-7 -76v-32h-297q-35 0 -59.5 -27.5t-24.5 -66.5v-644q0 -39 24.5 -66.5t59.5 -27.5h804q35 0 59.5 27.5t24.5 66.5v644q0 39 -24.5 66.5t-59.5 27.5zM914 585q8 0 14 -9t6 -21v-64h-307
l-2 94h289zM472 717l86 2q2 -16 2 -35l3 -193h-90l-2 191q-1 19 1 35zM110 585h298l1 -94h-319v64q0 12 6 21t14 9zM914 -119h-804q-8 0 -14 9t-6 21v516h844v-516q0 -12 -6 -21t-14 -9z" />
    <glyph glyph-name="uniE67E" unicode="&#xe67e;" 
d="M699 727h-320q-42 0 -74.5 -33t-32.5 -74l-31 -1q-42 0 -72 -32t-30 -74v-533q0 -41 32 -74t74 -33h400q42 0 74.5 33t32.5 74h27q42 0 74 32.5t32 74.5v373v53zM645 -73h-400q-21 0 -37 16t-16 37v533q0 21 15 37t36 16l29 1v-480q0 -42 32.5 -74.5t74.5 -32.5h320
q0 -21 -16.5 -37t-37.5 -16zM832 87q0 -21 -16 -37.5t-37 -16.5h-400q-21 0 -37.5 16.5t-16.5 37.5v533q0 21 16.5 37t37.5 16h266v-107q0 -42 32.5 -74t74.5 -32h80v-373zM752 513q-20 0 -36.5 28t-16.5 52v80l133 -160h-80zM699 166h-240q-11 0 -19 8t-8 19t8 19t19 8h240
q11 0 18.5 -8t7.5 -19t-7.5 -19t-18.5 -8zM699 300h-240q-11 0 -19 7.5t-8 18.5t8 19t19 8h240q11 0 18.5 -8t7.5 -19t-7.5 -18.5t-18.5 -7.5zM484 448q-30 3 -34.5 4t-10.5 4t-7 9.5t3 12.5q3 4 7 6q12 7 22 11q11 5 4 14q-13 17 -12 36q1 11 9 18.5t20 6.5q11 0 18.5 -7.5
t8.5 -18.5q1 -18 -10 -32q-5 -7 -4 -11t9 -7q12 -6 20 -11q6 -3 8 -10q5 -13 -9 -19q-9 -4 -32 -5h-10v-1z" />
    <glyph glyph-name="uniE67F" unicode="&#xe67f;" 
d="M514 670q-104 0 -192 -51.5t-139 -139.5t-51 -192t51 -192t139 -139t192 -51t192.5 51t139.5 139t51 192t-51 192t-139.5 139.5t-192.5 51.5zM347 121q0 7 0.5 19t7 46.5t17.5 66.5t36 70.5t59 66t90 47t125 19.5q0 -7 0.5 -19.5t-3.5 -47t-13.5 -66t-33.5 -70.5
t-58.5 -66.5t-93.5 -46.5t-133 -19zM467 287q0 -20 14 -34t33.5 -14t33.5 14t14 34v0q0 20 -14 34t-33.5 14t-33.5 -14t-14 -34z" />
    <glyph glyph-name="uniE680" unicode="&#xe680;" 
d="M478 349v361h-177v-363l93 78zM512 710v-40v-398l-119 108l-126 -106v432v4h-28q-62 0 -99.5 -38t-37.5 -99v-435v-61q37 35 103 35h273h443v598h-409zM103 -6v-1q1 -16 7 -31t20 -32.5t42.5 -28.5t69.5 -11h679v188h-716q-48 0 -75 -22.5t-27 -61.5z" />
    <glyph glyph-name="uniE681" unicode="&#xe681;" 
d="M445 632q-44 -49 -141.5 -152t-141.5 -152q-23 -26 -20.5 -45t14.5 -29.5t23 -10.5h83v-247q0 -24 15.5 -44.5t38.5 -20.5h122l-1 224h166v-224h122q21 0 37.5 20.5t16.5 62.5v229h65q24 0 33.5 22.5t-8.5 48.5q-40 47 -135 155t-140 161q-78 77 -149 2z" />
    <glyph glyph-name="uniE682" unicode="&#xe682;" 
d="M893 -12q0 122 -263 234q-14 7 -13 38t13 40q1 1 8.5 12.5t15.5 24.5t18.5 35.5t18 45.5t13 54t5.5 62q0 48 -14.5 85.5t-36.5 60t-51 37.5t-55.5 20.5t-52.5 5.5t-50 -5.5t-49 -20t-43.5 -37t-30 -60t-11.5 -86.5q-1 -124 79 -234q14 -8 14 -39t-14 -39
q-262 -111 -263 -234q0 -38 32 -69.5t73.5 -46.5t78.5 -14q23 -1 87.5 -1t126 0.5t119.5 0.5h61q38 0 79.5 15.5t73 46.5t31.5 68z" />
    <glyph glyph-name="uniE683" unicode="&#xe683;" 
d="M644 -105q-25 0 -41 18q-16 17 -42.5 35t-48.5 18q-23 0 -49.5 -18t-41.5 -34q-16 -18 -41 -18q-11 0 -21 5h-1l-107 60l-1 1q-14 10 -19 27.5t2 33.5q10 23 10 43q0 47 -33 80t-80 33h-4q-14 0 -24 11t-13 30q-10 48 -10 85t10 85q3 19 13.5 30t23.5 10h4q47 0 80 33.5
t33 79.5q0 21 -10 44q-7 16 -2 33.5t19 27.5l2 1l112 62h1q10 4 21 4q25 0 41 -16q15 -17 41 -34t48 -17t47.5 17t41.5 33t40 16q12 0 21 -4l2 -1l108 -60l1 -1q15 -10 20 -27.5t-2 -33.5q-10 -23 -10 -44q0 -46 33 -79.5t80 -33.5h3q14 1 24.5 -10t13.5 -30q9 -48 9 -85
t-9 -85q-3 -19 -13.5 -30t-24.5 -11h-3q-47 0 -80 -33t-33 -80q0 -20 10 -43q7 -16 2 -33.5t-20 -27.5l-1 -1l-110 -61l-1 -1q-10 -4 -21 -4zM641 -53q1 -1 3 -1l103 57q-13 33 -13 63q0 66 45 113.5t110 50.5q8 45 8 75t-8 75q-65 3 -110 50.5t-45 112.5q0 31 13 64
l-101 56h-1q-2 0 -3 -1q-16 -16 -38 -32q-47 -33 -88 -33t-89 34q-22 16 -37 32q-2 1 -4 1h-1l-105 -57q14 -33 14 -64q0 -65 -45 -112.5t-110 -50.5q-8 -45 -8 -75t8 -75q65 -3 110 -50.5t45 -113.5q0 -30 -14 -63l100 -55h3q16 18 38 34q49 35 91 35t90 -36q23 -16 39 -34
zM512 155q-62 0 -106 44t-44 106.5t44 106.5t106 44t106 -44t44 -106.5t-44 -106.5t-106 -44zM512 405q-41 0 -70 -29t-29 -70.5t29 -70.5t70 -29t70 29t29 70.5t-29 70.5t-70 29z" />
    <glyph glyph-name="uniE684" unicode="&#xe684;" 
d="M668 486l-134 187q-8 10 -21 11h-1h-1q-13 -1 -21 -11l-135 -187q-6 -10 -4.5 -21t10.5 -17.5t20 -5t18 10.5l113 158l113 -157q6 -9 17 -11t20 5t10.5 18t-4.5 20zM748 -42h1q10 8 10 22v230q-1 11 -9 19.5t-19 8.5t-19 -8t-7 -19v-194l-183 60q-11 4 -20.5 -1
t-13 -15.5t1.5 -21t16 -13.5l218 -72q13 -4 24 3v1zM895 406h-1v1v1q-5 12 -17 16l-220 70q-11 4 -21 -1.5t-13.5 -16t1.5 -20.5t16 -13l184 -59l-114 -156q-6 -9 -4.5 -20t10.5 -17t20.5 -4.5t18.5 10.5l135 186q8 10 5 23zM535 60.5q-3 10.5 -13 15.5t-21 1l-183 -60
l1 194q0 11 -7.5 19t-19 8t-19.5 -8.5t-8 -19.5l-1 -230q0 -14 10 -22q1 0 1 -0.5t1 -0.5q11 -7 23 -3l218 72q11 3 16 13.5t2 21zM401 476.5q-4 10.5 -14 16t-21 1.5l-219 -70q-13 -4 -17 -16l-1 -1v-1v0q-4 -13 4 -23l136 -186q7 -9 18 -10.5t20 4.5t11 17t-5 20l-114 156
l185 59q10 3 15.5 13t1.5 20.5z" />
    <glyph glyph-name="uniE685" unicode="&#xe685;" 
d="M509.5 243q70.5 0 121 50t50.5 121t-50.5 121t-121 50t-121 -50t-50.5 -121t50.5 -121t121 -50zM509.5 557q59.5 0 101 -42t41.5 -101t-41.5 -101t-101 -42t-101 42t-41.5 101t41.5 101t101 42zM509.5 749q-93.5 0 -172 -45.5t-124.5 -124.5t-46 -172q0 -58 20 -121.5
t47 -115.5t72 -115t77 -102t80 -94q20 -23 45 -23h3q25 0 45 23q48 55 80 94t77 102t72 115t47 115.5t20 121.5q0 93 -46 172t-124.5 124.5t-172 45.5zM513 -104q-1 -1 -4 -3q0 1 -2 3q-1 1 -2 1q-31 36 -49 57t-51.5 63.5t-54.5 73t-47.5 75t-41.5 81t-26 79t-11 81.5
q0 118 83.5 201.5t202 83.5t202 -83.5t83.5 -201.5q0 -39 -11 -81.5t-26 -79t-41.5 -81t-47.5 -75t-55 -73t-52 -63.5t-49 -58z" />
    <glyph glyph-name="uniE686" unicode="&#xe686;" 
d="M510 395q-20 0 -34 -14t-14 -34t14 -34t34 -14t34 14t14 34t-14 34t-34 14zM318.5 395q-19.5 0 -33.5 -14t-14 -34t14 -34t33.5 -14t33.5 14t14 34t-14 34t-33.5 14zM701 395q-20 0 -34 -14t-14 -34t14 -34t34 -14t34 14t14 34t-14 34t-34 14zM510 682q-104 0 -192 -45
t-139.5 -122t-51.5 -168q0 -78 38.5 -146t105.5 -115v-169l167 101q37 -6 72 -6q104 0 192 45t139 122t51 168t-51 168t-139 122t-192 45zM510 60q-40 0 -81 9l-113 -68l2 111q-66 40 -104.5 102t-38.5 133q0 78 45 144t122 104.5t168 38.5t168 -38.5t122 -104.5t45 -144
t-45 -144t-122 -104.5t-168 -38.5z" />
    <glyph glyph-name="uniE687" unicode="&#xe687;" 
d="M512 -148q-91 0 -174 35.5t-143 95.5t-95.5 143t-35.5 174t35.5 174t95.5 143t143 95.5t174 35.5t174 -35.5t143 -95.5t95 -143t35 -174t-35 -174t-95 -143t-143 -95.5t-174 -35.5zM550 556q0 16 -11 27.5t-27 11.5t-27.5 -11.5t-11.5 -27.5v-358q0 -16 11.5 -27
t27.5 -11t27 11t11 27v358zM512 83q-16 0 -27 -11.5t-11 -27.5t11 -27t27 -11t27.5 11t11.5 27t-11.5 27.5t-27.5 11.5z" />
    <glyph glyph-name="uniE688" unicode="&#xe688;" horiz-adv-x="1026" 
d="M410 -212h44v237q0 19 13 45q3 2 128 164t248 322l123 160q-134 -774 -134 -781q0 -5 -4 -7.5t-9 1.5q-3 0 -75 25.5t-142 51.5l-71 25l-19 -51q269 -96 294 -102q24 -10 41.5 5.5t22.5 45.5q3 10 40 216t74 408t40 208q0 2 0.5 10t0.5 12.5t-3.5 11t-10.5 11.5
q-8 2 -18 -1t-15 -8l-5 -4l-7 19q-908 -538 -940 -557q-24 -14 -25.5 -37.5t18.5 -32.5q26 -13 301 -115l13 44l-269 103l851 505q-454 -588 -473 -614q-32 -43 -32 -83v-237zM410 -212z" />
    <glyph glyph-name="uniE689" unicode="&#xe689;" 
d="M352 364h-256q-40 0 -68 28t-28 68v256q0 40 28 68t68 28h256q40 0 68 -28t28 -68v-256q0 -40 -28 -68t-68 -28zM96 748q-13 0 -22.5 -9.5t-9.5 -22.5v-256q0 -13 9.5 -22.5t22.5 -9.5h256q13 0 22.5 9.5t9.5 22.5v256q0 13 -9.5 22.5t-22.5 9.5h-256zM352 -148h-256
q-40 0 -68 28t-28 68v256q0 40 28 68t68 28h256q40 0 68 -28t28 -68v-256q0 -40 -28 -68t-68 -28zM96 236q-13 0 -22.5 -9.5t-9.5 -22.5v-256q0 -13 9.5 -22.5t22.5 -9.5h256q13 0 22.5 9.5t9.5 22.5v256q0 13 -9.5 22.5t-22.5 9.5h-256zM864 -148h-256q-40 0 -68 28t-28 68
v256q0 40 28 68t68 28h256q40 0 68 -28t28 -68v-256q0 -40 -28 -68t-68 -28zM608 236q-13 0 -22.5 -9.5t-9.5 -22.5v-256q0 -13 9.5 -22.5t22.5 -9.5h256q13 0 22.5 9.5t9.5 22.5v256q0 13 -9.5 22.5t-22.5 9.5h-256zM864 364h-256q-40 0 -68 28t-28 68v256q0 40 28 68
t68 28h256q40 0 68 -28t28 -68v-256q0 -40 -28 -68t-68 -28zM608 748q-13 0 -22.5 -9.5t-9.5 -22.5v-256q0 -13 9.5 -22.5t22.5 -9.5h256q13 0 22.5 9.5t9.5 22.5v256q0 13 -9.5 22.5t-22.5 9.5h-256z" />
    <glyph glyph-name="uniE68A" unicode="&#xe68a;" 
d="M860 383q-8 0 -13.5 -5.5t-5.5 -13.5v-339q0 -16 -11 -27t-27 -11h-574q-16 0 -27 11t-11 27v553q0 16 11 27.5t27 11.5h370q8 0 13.5 5.5t5.5 13.5t-5.5 13.5t-13.5 5.5h-374q-30 0 -51 -21.5t-21 -51.5v-561q0 -30 21 -51t51 -21h582q30 0 51 21t21 51v343
q0 8 -5.5 13.5t-13.5 5.5v0zM505 138l363 364q17 16 15.5 40.5t-19.5 42.5l-34 34q-18 18 -42.5 19.5t-40.5 -14.5l-364 -364zM774 597q6 6 15 5.5t16 -7.5l35 -34q6 -7 6.5 -16.5t-5.5 -15.5l-40 -40l-67 68zM772 460l-270 -270l-68 67l271 271zM383 259l-38 -137
q-2 -9 5 -16t17 -5l137 38l-28 28l-89 -25l24 89z" />
    <glyph glyph-name="uniE68B" unicode="&#xe68b;" horiz-adv-x="1304" 
d="M1118 294q-14 0 -24 -10t-10 -24v-321q0 -31 -22 -52.5t-53 -21.5h-716q-31 0 -53 21.5t-22 52.5v674q0 31 22 53t53 22h234q14 0 23.5 10t9.5 24t-9.5 24t-23.5 10h-234q-59 0 -100.5 -42t-41.5 -101v-674q0 -59 41.5 -100.5t100.5 -41.5h716q59 0 101 41.5t42 100.5
v321q0 14 -10 24t-24 10zM406 95q-3 -14 5 -25.5t22 -13.5q3 -1 6 -1q12 0 21.5 8t11.5 20q3 15 10.5 44t38.5 104t72 138q83 124 197 195q108 68 244 84l-111 -114q-10 -11 -9.5 -25t10.5 -23q10 -10 24 -10t24 10l171 177q1 0 1 1h1v1l1 1v0q0 1 1 1v1v0l1 1v1l1 1v0v1h1
v1v1l1 1v1v1v1h1v1v1v1v1v1l1 1v1v0v1v0v2v1l-1 1v0v1v1v1v0v1q0 1 -1 1v1v1v1l-1 1v1v0l-1 1q0 1 -1 2q0 1 -1 1v1v0v1h-1v1l-1 1v0h-1v1l-1 1q-1 1 -1 2h-1l-1 1l-1 1h-1v1h-1l-1 1v0h-1h-1v1q-1 0 -2 1h-2q0 1 -1 1l-249 82q-14 5 -26.5 -1.5t-17 -19.5t2 -26t19.5 -17
l100 -33q-110 -24 -204 -82q-127 -79 -217 -216q-29 -43 -53 -90.5t-37 -82.5t-23.5 -70t-13.5 -47.5t-4 -20.5zM406 95z" />
    <glyph glyph-name="uniE68C" unicode="&#xe68c;" 
d="M512 812q-139 0 -257 -68.5t-186.5 -186.5t-68.5 -257t68.5 -257t186.5 -186.5t257 -68.5t257 68.5t186.5 186.5t68.5 257t-68.5 257t-186.5 186.5t-257 68.5zM783 289q-8 -28 -22 -54q-14 -25 -30 -45q-16 -21 -33 -38q-26 -27 -52 -48q-28 -23 -52 -39q-26 -17 -46 -25
q-20 -10 -31 -10q-13 0 -32 9q-21 11 -43 26q-24 16 -49 38q-25 21 -51 46q-16 15 -35 37q-19 21 -36 45q-17 25 -28.5 54t-13.5 62q-1 33 7 61t25 51q16 23 40 38t54 22q15 3 30 0.5t30 -7.5q15 -6 27 -14q13 -7 26 -16q27 -21 52 -50q21 26 44 46q20 17 45.5 31t53.5 12
q39 -3 65 -18.5t42 -38.5q15 -24 20.5 -54t3.5 -61t-11 -60z" />
    <glyph glyph-name="uniE68D" unicode="&#xe68d;" 
d="M1018 425q-7 23 -38 28l-298 44l-130 262q-15 30 -40 30q-26 0 -42 -30l-130 -262l-293 -43q-32 -5 -40 -29q-7 -25 19 -50l208 -202l-49 -288q-5 -29 8 -45q18 -21 51 -7q1 0 2 1l265 139l265 -139q15 -8 28 -8q16 0 26 12q12 13 9 37l-51 298l214 207q23 23 16 45z" />
    <glyph glyph-name="uniE68E" unicode="&#xe68e;" 
d="M820 15q0 -25 -10 -47t-27.5 -38.5t-41 -26t-51.5 -9.5h-357q-28 0 -51.5 9.5t-41 26t-27.5 38.5t-10 47v675q0 25 10 47.5t27.5 39t41 26t51.5 9.5h357q28 0 51.5 -9.5t41 -26t27.5 -39t10 -47.5v-675zM739 642h-456v-578h456v578zM511 36q-21 0 -36.5 -15t-15.5 -37
t15.5 -37.5t36.5 -15.5q22 0 37 15.5t15 37.5t-15 37t-37 15zM592 727q0 8 -5 12.5t-12 4.5h-128q-5 0 -10.5 -4.5t-5.5 -12.5t5 -12.5t11 -4.5h128q7 0 12 4.5t5 12.5z" />
    <glyph glyph-name="uniE68F" unicode="&#xe68f;" 
d="M560 176l-49 48l145 145l239 238q-29 17 -63 17h-640q-35 0 -65 -17l244 -244l136 -136l-46 -45l-135 136l-244 243q-18 -30 -18 -65v-383q0 -34 17 -63l256 255l48 -48l-256 -256q29 -16 63 -16h640q34 0 63 16l-255 255zM943 560l-239 -239l-16 -17l255 -255
q17 30 17 64v383q0 34 -17 64z" />
    <glyph glyph-name="uniE690" unicode="&#xe690;" 
d="M512 628q-89 0 -165 -44t-119.5 -120t-43.5 -165t43.5 -164.5t119.5 -119.5t165 -44t165 44t119.5 119.5t43.5 164.5t-43.5 165t-119.5 120t-165 44zM512 14q-118 0 -201.5 83.5t-83.5 201.5t83.5 201.5t201.5 83.5t201.5 -83.5t83.5 -201.5t-83.5 -201.5t-201.5 -83.5z
M654 277h-142v143q0 4 -3 7t-8 3h-22q-4 0 -7.5 -3t-3.5 -7v-154v-22q0 -4 3.5 -7.5t7.5 -3.5h175q5 0 8 3.5t3 7.5v22q0 5 -3 8t-8 3z" />
    <glyph glyph-name="uniE691" unicode="&#xe691;" 
d="M955 -107q-28 -27 -65 9l-208 205q-2 -1 12 11t28.5 24.5t15.5 12.5l208 -197q37 -36 9 -65zM469 53q129 0 220.5 91.5t91.5 221t-91.5 221t-220.5 91.5t-220.5 -91.5t-91.5 -221t91.5 -221t220.5 -91.5zM469 -19q-105 0 -193.5 51.5t-140 140t-51.5 193t51.5 193
t140 140t193 51.5t193.5 -51.5t140.5 -140t51.5 -193t-51.5 -193t-140.5 -140t-193 -51.5v0z" />
    <glyph glyph-name="uniE692" unicode="&#xe692;" 
d="M508 305zM171 304.5q0 91.5 45 169.5t122.5 123t169 45t169.5 -45t123 -123t45 -169.5t-45 -169t-123 -122.5t-169.5 -45t-169 45t-122.5 122.5t-45 169zM629 440l-121 -121l-121 121l-15 -14l122 -121l-122 -121l15 -15l121 121l121 -121l15 15l-122 121l122 121z" />
    <glyph glyph-name="uniE693" unicode="&#xe693;" 
d="M572 -173h-263q-68 1 -131 39q-75 46 -75 112q0 70 70 134q69 62 210 123q3 4 4 19q0 24 -7 33q-3 2 -5 5q0 1 -3 6q-29 43 -47 85q-33 78 -33 159q0 103 61 164q35 35 86 53q42 14 87 14q82 0 136 -46q70 -61 70 -185q1 -137 -83 -250l-2 -2q-2 -3 -5 -4q-7 -7 -6 -29
q1 -17 6 -22q139 -60 208.5 -124t70.5 -133q0 -67 -75 -113q-63 -38 -130 -38h-1h-143zM309 -139h263h143h1q58 0 112 33q59 36 59 84q0 54 -59 108q-66 60 -201 118q-1 0 -1 1q-23 12 -23.5 52t19.5 55q77 104 76 229q0 51 -13.5 89t-32 58.5t-44 32.5t-44.5 15t-38 3
q-18 0 -38 -2.5t-54 -16.5t-57 -38q-51 -51 -51 -140q0 -115 74 -225l3 -6q21 -20 17 -65q-3 -32 -23 -42q-137 -58 -201 -117q-59 -54 -59 -109q-1 -47 58 -83q56 -33 114 -34z" />
    <glyph glyph-name="uniE694" unicode="&#xe694;" 
d="M511 749q-91 0 -174 -35.5t-142.5 -95.5t-95 -142.5t-35.5 -173.5t35.5 -173.5t95 -142.5t142.5 -95.5t174 -35.5t173.5 35.5t142.5 95.5t95 142.5t35 173.5t-35 173.5t-95 142.5t-142.5 95.5t-173.5 35.5zM508 34l-304 153l40 22l264 -135l263 135l41 -22zM203 303
l40 22l264 -135l263 135l41 -22l-304 -154zM508 262l-304 154l304 154l304 -154z" />
    <glyph glyph-name="uniE695" unicode="&#xe695;" 
d="M64 749h445v-897h-445v897zM116 527h114v113q-83 0 -102 -1q-3 0 -7 -5t-4 -9q-1 -16 -1 -98zM344 525h99q4 1 8.5 6.5t5.5 9.5q2 44 -1 82q0 4 -5.5 10t-9.5 6q-15 1 -97 1v-115zM232 76q0 81 -1 95q-1 5 -7 11t-11 6q-34 2 -79 0q-5 0 -11 -4.5t-6 -7.5q-1 -18 -1 -100
h116zM345 189v-112h112q0 80 -1 95q0 4 -5.5 10t-10.5 6q-14 1 -95 1zM230 414q-83 0 -102 -1q-3 0 -7 -4.5t-4 -7.5q-1 -18 -1 -99h114v112zM457 414q-83 0 -100 -1q-3 0 -8 -3.5t-5 -5.5q-1 -21 -1 -104q82 0 95 1q5 0 11.5 5.5t6.5 10.5q1 14 1 97zM679 74v-222h-106v500
h387v-500h-107v222h-174zM571 416v50h389v-50h-389z" />
    <glyph glyph-name="uniE696" unicode="&#xe696;" 
d="M513 681l136 -284l246 -54l-136 -167l12 -293l-259 93l-260 -93l13 292l-141 172l239 52zM512 812l-196 -343l-316 -86l199 -237l-17 -358l330 123l329 -123l-16 359l196 234l-327 87l-18 35q-19 35 -45 86t-52.5 101.5t-46 86t-20.5 35.5z" />
    <glyph glyph-name="uniE697" unicode="&#xe697;" 
d="M920 739l1 9q0 10 -4 14q-6 6 -14 6h-9h-235q-8 0 -13.5 -6t-6.5 -14v-13q4 -18 22 -18h172l-205 -203q-90 75 -205 75q-87 0 -161 -43t-116.5 -116.5t-42.5 -160.5t42.5 -160.5t116.5 -116.5t161 -43t160.5 43t116.5 116.5t43 159.5q0 118 -78 209l205 204l-1 -175
q0 -8 5.5 -14t12.5 -6h14q18 0 19 17v236v0zM692 268q0 -111 -79 -189.5t-190 -78.5q-112 0 -190.5 78.5t-78.5 190t79 190t190 78.5t190 -78.5t79 -190.5z" />
    <glyph glyph-name="uniE698" unicode="&#xe698;" 
d="M601 768q-87 0 -160.5 -43t-116.5 -116.5t-43 -159.5q0 -116 76 -207l-101 -102l-109 108q-7 8 -18 8t-18 -8q-7 -7 -7 -18t7 -17l108 -110l-109 -109q-7 -8 -7 -18.5t7 -17.5q8 -8 18.5 -8t17.5 8l109 109l109 -110q8 -8 18.5 -8t17.5 8q8 8 8 18.5t-8 17.5l-108 110
l101 102q90 -76 208 -76q87 0 161 42.5t116.5 116.5t42.5 161q0 86 -42.5 159.5t-116.5 116.5t-161 43zM601 180q-112 0 -190.5 79t-78.5 190t78.5 189.5t190 78.5t190.5 -78.5t79 -189.5q0 -112 -79 -190.5t-190 -78.5z" />
    <glyph glyph-name="uniE699" unicode="&#xe699;" 
d="M512 -58q-9 0 -15 7q-15 16 -37 40.5t-72 87.5t-88.5 120t-69.5 124.5t-31 114.5q0 129 92 220.5t221 91.5t220.5 -91.5t91.5 -220.5q0 -47 -31 -114.5t-69 -124.5t-88.5 -120t-72.5 -87.5t-36 -40.5q-6 -7 -15 -7zM512 707q-112 0 -191.5 -79.5t-79.5 -191.5
q0 -46 32 -112.5t83 -136t86.5 -113t69.5 -81.5q33 38 69 81.5t87 113t83 136t32 112.5q0 112 -79.5 191.5t-191.5 79.5zM937 -149h-851q-11 0 -17 10t0 21l130 229q4 7 12.5 9.5t16 -2t9.5 -12.5t-2 -16l-113 -198h779l-117 198q-4 7 -2 15.5t9.5 13t15.5 2t12 -9.5
l136 -229q6 -10 0 -20.5t-18 -10.5zM511.5 304q-49.5 0 -84.5 35t-35 84.5t35 85t84.5 35.5t85 -35.5t35.5 -85t-35.5 -84.5t-85 -35zM511.5 503q-32.5 0 -55.5 -23.5t-23 -56t23 -55.5t55.5 -23t56 23t23.5 55.5t-23.5 56t-56 23.5z" />
    </font>
</defs>
</svg>
